<svg width="800" height="800" viewBox="0 0 800 800" fill="none" xmlns="http://www.w3.org/2000/svg">
<path d="M66.6667 400C66.6667 242.865 66.6667 164.298 115.482 115.482C164.298 66.6666 242.865 66.6666 400 66.6666C557.133 66.6666 635.703 66.6666 684.517 115.482C733.333 164.298 733.333 242.865 733.333 400C733.333 557.133 733.333 635.703 684.517 684.517C635.703 733.333 557.133 733.333 400 733.333C242.865 733.333 164.298 733.333 115.482 684.517C66.6667 635.703 66.6667 557.133 66.6667 400Z" stroke="white" stroke-width="50"/>
<path d="M500 400H400M400 400H300M400 400V300M400 400V500" stroke="white" stroke-width="50" stroke-linecap="round"/>
</svg>
