<svg width="800" height="800" viewBox="0 0 800 800" fill="none" xmlns="http://www.w3.org/2000/svg">
<path d="M733.333 400C733.333 465.927 713.783 530.373 677.157 585.19C640.53 640.007 588.47 682.73 527.56 707.96C466.653 733.19 399.63 739.79 334.97 726.93C270.31 714.067 210.915 682.32 164.298 635.703C117.68 589.083 85.9334 529.69 73.0717 465.03C60.2097 400.37 66.811 333.347 92.04 272.439C117.269 211.53 159.994 159.471 214.81 122.843C269.626 86.2163 334.073 66.6666 400 66.6666" stroke="white" stroke-width="50" stroke-linecap="round"/>
<path d="M500 400H400M400 400H300M400 400V300M400 400V500" stroke="white" stroke-width="50" stroke-linecap="round"/>
<path d="M483.333 77.1647C600.467 107.313 692.683 199.529 722.833 316.663" stroke="white" stroke-width="50" stroke-linecap="round"/>
</svg>
