<svg width="800" height="800" viewBox="0 0 800 800" fill="none" xmlns="http://www.w3.org/2000/svg">
<path d="M91.6667 538.123V166.597H41.6667V538.123H91.6667ZM758.333 538.123V164.444H708.333V538.123H758.333ZM668.53 75.6107C630.583 76.9327 580.987 80.8796 542.83 92.3023L557.17 140.202C588.81 130.73 632.973 126.88 670.27 125.58L668.53 75.6107ZM542.83 92.3023C509.663 102.232 472.353 121.627 443.273 138.458L468.317 181.733C496.667 165.327 529.83 148.387 557.17 140.202L542.83 92.3023ZM131.213 127.453C163.413 129.432 199.881 133.281 226.955 140.425L239.712 92.0796C207.685 83.6283 167.172 79.569 134.28 77.5473L131.213 127.453ZM226.955 140.425C259.025 148.888 298.495 167.403 331.056 184.62L354.427 140.419C321.245 122.873 277.589 102.075 239.712 92.0796L226.955 140.425ZM466.013 691.04C499.047 673.43 539.96 654.02 573.047 645.29L560.287 596.943C521.277 607.237 476.09 629.007 442.493 646.917L466.013 691.04ZM573.047 645.29C599.81 638.227 635.773 634.38 667.733 632.383L664.61 582.48C631.94 584.523 591.97 588.583 560.287 596.943L573.047 645.29ZM357.507 646.917C323.909 629.007 278.723 607.237 239.712 596.943L226.955 645.29C260.04 654.02 300.953 673.43 333.987 691.04L357.507 646.917ZM239.712 596.943C208.031 588.583 168.059 584.523 135.389 582.48L132.268 632.383C164.227 634.38 200.189 638.227 226.955 645.29L239.712 596.943ZM708.333 538.123C708.333 560.983 689.39 580.93 664.61 582.48L667.733 632.383C716.873 629.31 758.333 589.33 758.333 538.123H708.333ZM758.333 164.444C758.333 115.667 719.49 73.8357 668.53 75.6107L670.27 125.58C690.763 124.867 708.333 141.724 708.333 164.444H758.333ZM41.6667 538.123C41.6667 589.33 83.126 629.31 132.268 632.383L135.389 582.48C110.61 580.93 91.6667 560.983 91.6667 538.123H41.6667ZM442.493 646.917C416.083 660.997 383.917 660.997 357.507 646.917L333.987 691.04C375.097 712.953 424.903 712.953 466.013 691.04L442.493 646.917ZM443.273 138.458C416.003 154.24 382.057 155.028 354.427 140.419L331.056 184.62C374.13 207.396 426.367 206.012 468.317 181.733L443.273 138.458ZM91.6667 166.597C91.6667 143.358 110.081 126.154 131.213 127.453L134.28 77.5473C82.339 74.355 41.6667 116.626 41.6667 166.597H91.6667Z" fill="white"/>
<path d="M400 183.35V683.35" stroke="white" stroke-width="50"/>
</svg>
