<svg width="800" height="800" viewBox="0 0 800 800" fill="none" xmlns="http://www.w3.org/2000/svg">
<path d="M633.333 100H166.667C119.526 100 95.956 100 81.3114 113.74C66.6667 127.48 66.6667 149.594 66.6667 193.822V216.816C66.6667 251.411 66.6667 268.708 75.32 283.047C83.9734 297.387 99.7824 306.286 131.401 324.085L228.501 378.747C249.715 390.687 260.322 396.66 267.917 403.253C283.733 416.983 293.469 433.117 297.881 452.907C300 462.407 300 473.527 300 495.763V584.747C300 615.067 300 630.223 308.397 642.043C316.795 653.86 331.709 659.69 361.54 671.353C424.16 695.833 455.47 708.073 477.737 694.147C500 680.22 500 648.397 500 584.747V495.763C500 473.527 500 462.407 502.12 452.907C506.53 433.117 516.267 416.983 532.083 403.253C539.677 396.66 550.283 390.687 571.5 378.747L668.6 324.085C700.217 306.286 716.027 297.387 724.68 283.047C733.333 268.708 733.333 251.411 733.333 216.816V193.822C733.333 149.594 733.333 127.48 718.69 113.74C704.043 100 680.473 100 633.333 100Z" stroke="white" stroke-width="50"/>
</svg>
