<svg width="800" height="800" viewBox="0 0 800 800" fill="none" xmlns="http://www.w3.org/2000/svg">
<path d="M400 600C400 673.637 340.303 733.333 266.667 733.333C193.029 733.333 133.333 673.637 133.333 600C133.333 526.363 193.029 466.667 266.667 466.667C340.303 466.667 400 526.363 400 600Z" stroke="white" stroke-width="50"/>
<path d="M400 600V266.667" stroke="white" stroke-width="50"/>
<path d="M537.223 131.4L449.443 175.29C437.28 181.372 431.197 184.413 426.173 188.254C413.163 198.203 404.267 212.593 401.19 228.681C400 234.891 400 241.691 400 255.29C400 287.66 400 303.845 403.987 314.848C414.52 343.927 443.67 361.943 474.39 358.36C486.013 357.003 500.49 349.767 529.443 335.29L617.223 291.4C629.387 285.318 635.47 282.277 640.493 278.436C653.503 268.488 662.4 254.097 665.477 238.009C666.667 231.799 666.667 224.999 666.667 211.4C666.667 179.03 666.667 162.845 662.68 151.843C652.147 122.763 622.997 104.746 592.277 108.33C580.653 109.686 566.177 116.924 537.223 131.4Z" stroke="white" stroke-width="50" stroke-linecap="round"/>
</svg>
