<svg width="800" height="800" viewBox="0 0 800 800" fill="none" xmlns="http://www.w3.org/2000/svg">
<path d="M666.667 200H100" stroke="white" stroke-width="50" stroke-linecap="round"/>
<path d="M333.333 533.333H100" stroke="white" stroke-width="50" stroke-linecap="round"/>
<path d="M333.333 366.667H100" stroke="white" stroke-width="50" stroke-linecap="round"/>
<path d="M637.5 356.173C692.233 387.773 719.6 403.573 728.26 424.48C735.023 440.817 735.023 459.17 728.26 475.503C719.6 496.413 692.233 512.213 637.5 543.813C582.767 575.41 555.4 591.21 532.963 588.257C515.437 585.95 499.54 576.773 488.777 562.747C475 544.79 475 513.193 475 449.993C475 386.793 475 355.193 488.777 337.24C499.54 323.212 515.437 314.035 532.963 311.727C555.4 308.774 582.767 324.573 637.5 356.173Z" stroke="white" stroke-width="50"/>
</svg>
