<svg width="1200" height="220" viewBox="0 0 1200 220" fill="none" xmlns="http://www.w3.org/2000/svg">
<path d="M128.224 183.645C127.893 183.314 128.086 181.439 128.224 180.542C130.086 177.854 117.056 175.579 116.228 178.681C115.401 181.783 110.851 185.713 106.714 187.781C102.578 189.849 101.13 192.952 101.75 195.02C102.371 197.088 104.853 197.502 105.473 197.916C106.094 198.329 121.399 199.157 126.362 197.916C131.326 196.675 132.567 192.952 132.567 191.09C132.567 189.229 128.638 184.058 128.224 183.645Z" fill="#382E35"/>
<path d="M174.207 183.645C174.538 183.314 174.345 181.439 174.207 180.542C172.345 177.854 185.375 175.579 186.203 178.681C187.03 181.783 191.58 185.713 195.717 187.781C199.853 189.849 201.301 192.952 200.681 195.02C200.06 197.088 197.578 197.502 196.958 197.916C196.337 198.329 181.032 199.157 176.069 197.916C171.105 196.675 169.864 192.952 169.864 191.09C169.864 189.229 173.793 184.058 174.207 183.645Z" fill="#382E35"/>
<path d="M126.847 181.943C105.999 177.807 99.1322 158.848 98.3049 149.885H203.992C200.691 174.848 181.957 180.467 179.81 181.111L179.794 181.116C177.725 181.736 152.906 187.114 126.847 181.943Z" fill="#F1F1F1"/>
<g clip-path="url(#clip0_1_230)">
<path d="M201.913 61.9852C203.981 92.5952 179.776 97.559 151.448 97.559C123.12 97.559 98.2943 93.0089 100.983 61.9852C103.349 34.6845 123.12 20 151.448 20C179.776 20 200.222 36.9595 201.913 61.9852Z" fill="#F1F1F1"/>
<path fill-rule="evenodd" clip-rule="evenodd" d="M106.575 42.1301C108.919 38.5451 114.641 31.2666 120.432 30.7702C127.671 30.1498 139.667 35.734 139.667 50.2117V66.5508H151.247V66.5592H162.83V50.2201C162.83 35.7424 174.825 30.1581 182.064 30.7786C187.855 31.275 193.784 38.752 196.128 42.3369C191.349 32.0429 181.705 25.4476 171.93 22.2917C164.109 19.7665 156.336 19.5182 151.249 19.6101V19.6017C146.162 19.5098 138.389 19.7579 130.567 22.2833C120.792 25.4393 111.355 31.836 106.575 42.1301Z" fill="#3C3135"/>
<path d="M143.804 85.1493C133.38 83.9911 126.224 78.462 123.949 75.8422L179.378 75.4286C174.828 82.6674 156.834 86.5971 143.804 85.1493Z" fill="#DF921C"/>
<path d="M151.458 81.8617C136.236 82.3581 125.95 77.2427 122.71 74.6229C122.71 74.0024 131.603 62.8339 151.458 62.2135C171.313 61.593 180 74.6229 179.38 75.2434C178.759 75.8638 170.486 81.2413 151.458 81.8617Z" fill="#FFC921"/>
<ellipse cx="165.811" cy="69.1331" rx="2.48189" ry="1.65459" transform="rotate(36.3995 165.811 69.1331)" fill="#2C2728"/>
<ellipse cx="2.48189" cy="1.65459" rx="2.48189" ry="1.65459" transform="matrix(-0.804899 0.593412 0.593412 0.804899 137.459 66.3285)" fill="#2C2728"/>
<ellipse cx="187.03" cy="56.5018" rx="9.61312" ry="12.7798" transform="rotate(-15.1343 187.03 56.5018)" fill="#292826"/>
<ellipse cx="9.61312" cy="12.7798" rx="9.61312" ry="12.7798" transform="matrix(-0.965317 -0.261082 -0.261082 0.965317 128.086 46.5292)" fill="#292826"/>
</g>
<path d="M115.677 91.5612L112.782 94.2499C115.057 101.075 133.936 100.455 154.767 100.455C170.486 100.455 182.137 96.9386 187.445 93.8362L186.204 91.5612H115.677Z" fill="#F1F1F1"/>
<path d="M187.698 93.2158C188.939 93.9741 191.421 95.5736 191.421 95.9045C191.421 96.3182 200.935 101.696 203.003 106.246C205.072 110.796 214.379 128.376 214.792 128.583C215.206 128.79 215.413 130.03 216.24 130.444C217.067 130.858 219.136 131.271 219.136 132.926C219.136 134.581 217.067 139.544 215.62 140.992C214.172 142.44 211.07 144.715 208.381 143.267C205.692 141.819 207.14 140.165 206.726 139.338C206.462 138.809 205.945 138.197 205.391 137.339C205.089 137.822 205.071 138.924 205.071 139.958C205.071 140.992 206.312 144.715 206.106 146.37C205.899 148.024 204.451 149.679 198.867 153.402C193.282 157.124 171.152 158.986 169.498 159.193C167.843 159.399 141.99 160.02 122.962 158.159C103.934 156.297 99.798 151.333 97.5229 149.265C95.2479 147.197 95.6615 142.854 96.4888 141.819C97.1507 140.992 97.0161 138.579 96.866 137.476C96.6856 137.874 96.5552 138.097 96.4888 138.097C95.8684 138.097 95.2479 139.338 95.0411 140.578C94.8342 141.819 92.1455 144.922 88.6295 143.267C85.1135 141.613 83.4591 135.615 83.0454 133.546C82.6318 131.478 85.1137 130.858 85.7341 130.651C86.3546 130.444 86.9751 129.617 87.1819 128.583C87.3887 127.549 91.732 120.723 95.2481 112.657C98.7641 104.591 108.898 96.7318 109.519 96.3182C110.015 95.9872 112.483 94.112 113.655 93.2158C114.276 96.1113 129.788 98.1796 153.366 98.8C172.228 99.2964 184.113 95.284 187.698 93.2158Z" fill="#980808"/>
<path d="M89.2685 143.06C88.6066 143.06 85.8214 139.613 84.5115 137.89C84.1668 138.234 83.3947 139.337 83.0637 140.992C82.6501 143.06 84.3047 145.749 85.7525 145.956C86.9107 146.121 88.579 144.094 89.2685 143.06Z" fill="#F1F1F1"/>
<path d="M212.885 143.06C213.547 143.06 216.332 139.613 217.642 137.89C217.987 138.234 218.759 139.337 219.09 140.992C219.503 143.06 217.849 145.749 216.401 145.956C215.243 146.121 213.575 144.094 212.885 143.06Z" fill="#F1F1F1"/>
<path d="M169.877 125.222C169.992 125.103 170.131 125.007 170.287 124.937C170.442 124.868 170.611 124.828 170.784 124.819C170.957 124.81 171.13 124.832 171.293 124.885C171.456 124.937 171.606 125.018 171.736 125.124L175.937 128.574L174.185 130.382L169.983 126.933C169.854 126.827 169.749 126.699 169.673 126.556C169.598 126.412 169.554 126.257 169.545 126.098C169.535 125.939 169.559 125.78 169.616 125.63C169.673 125.479 169.761 125.341 169.877 125.222Z" fill="white"/>
<path d="M193.117 130.382L191.364 128.573L195.566 125.124C195.826 124.91 196.169 124.8 196.517 124.819C196.866 124.837 197.192 124.982 197.425 125.222C197.657 125.462 197.777 125.777 197.757 126.098C197.737 126.418 197.579 126.719 197.319 126.933L193.117 130.382Z" fill="white"/>
<path d="M194.865 132.626C195.802 136.446 197.085 138.904 196.446 140.315C196.11 141.057 195.421 141.679 194.28 141.679C192.501 141.679 192.501 139.748 190.722 139.748C188.943 139.748 188.943 141.679 187.165 141.679C185.386 141.679 185.386 139.748 183.608 139.748C181.829 139.748 181.829 141.679 180.05 141.679C178.272 141.679 178.272 139.748 176.493 139.748C174.715 139.748 174.715 141.679 172.936 141.679C171.881 141.679 171.284 141.107 170.905 140.445C169.995 138.856 172.116 135.36 172.936 132.276C173.843 128.869 173.767 124.625 173.889 122.066C174.123 117.13 178.24 113.12 183.609 113.12C188.977 113.12 192.938 117.138 193.329 122.066C193.54 124.722 194.007 129.129 194.865 132.626Z" fill="white"/>
<path d="M179.953 122.643C180.548 122.643 181.03 122.199 181.03 121.651C181.03 121.104 180.548 120.66 179.953 120.66C179.358 120.66 178.875 121.104 178.875 121.651C178.875 122.199 179.358 122.643 179.953 122.643Z" fill="#292A2E"/>
<path d="M187.339 122.643C187.934 122.643 188.416 122.199 188.416 121.651C188.416 121.104 187.934 120.66 187.339 120.66C186.744 120.66 186.261 121.104 186.261 121.651C186.261 122.199 186.744 122.643 187.339 122.643Z" fill="#292A2E"/>
<path d="M185.582 124.328C185.644 124.328 185.706 124.34 185.762 124.365C185.818 124.389 185.868 124.425 185.907 124.469C185.946 124.514 185.974 124.566 185.989 124.621C186.004 124.677 186.005 124.735 185.993 124.791C185.762 125.785 184.802 126.41 183.652 126.41C182.503 126.41 181.543 125.785 181.312 124.791C181.3 124.735 181.301 124.677 181.316 124.621C181.331 124.565 181.359 124.514 181.398 124.469C181.437 124.425 181.487 124.389 181.543 124.365C181.6 124.34 181.661 124.328 181.723 124.328H185.582Z" fill="white"/>
<path d="M183.652 126.531C182.413 126.531 181.422 125.842 181.183 124.816C181.166 124.743 181.167 124.667 181.186 124.595C181.205 124.522 181.242 124.454 181.293 124.397C181.345 124.337 181.41 124.29 181.484 124.257C181.559 124.225 181.64 124.208 181.722 124.208H185.581C185.664 124.208 185.745 124.225 185.819 124.257C185.894 124.29 185.959 124.337 186.011 124.397C186.062 124.454 186.098 124.522 186.117 124.595C186.136 124.667 186.137 124.743 186.121 124.816C185.882 125.842 184.89 126.531 183.652 126.531ZM181.722 124.449C181.679 124.449 181.636 124.458 181.597 124.475C181.558 124.492 181.524 124.517 181.497 124.548C181.47 124.578 181.451 124.613 181.441 124.651C181.431 124.688 181.431 124.728 181.44 124.766C181.651 125.677 182.54 126.289 183.651 126.289C184.763 126.289 185.652 125.677 185.864 124.766C185.872 124.728 185.872 124.688 185.862 124.651C185.852 124.613 185.833 124.578 185.806 124.548C185.779 124.517 185.745 124.492 185.706 124.475C185.667 124.458 185.624 124.449 185.581 124.449H181.722Z" fill="#292A2E"/>
<path d="M428.224 183.645C427.893 183.314 428.086 181.439 428.224 180.542C430.086 177.854 417.056 175.579 416.228 178.681C415.401 181.783 410.851 185.713 406.714 187.781C402.578 189.849 401.13 192.952 401.75 195.02C402.371 197.088 404.853 197.502 405.473 197.916C406.094 198.329 421.399 199.157 426.362 197.916C431.326 196.675 432.567 192.952 432.567 191.09C432.567 189.229 428.638 184.058 428.224 183.645Z" fill="#382E35"/>
<path d="M474.207 183.645C474.538 183.314 474.345 181.439 474.207 180.542C472.345 177.854 485.375 175.579 486.203 178.681C487.03 181.783 491.58 185.713 495.717 187.781C499.853 189.849 501.301 192.952 500.681 195.02C500.06 197.088 497.578 197.502 496.958 197.916C496.337 198.329 481.032 199.157 476.069 197.916C471.105 196.675 469.864 192.952 469.864 191.09C469.864 189.229 473.793 184.058 474.207 183.645Z" fill="#382E35"/>
<path d="M426.847 181.943C405.999 177.807 399.132 158.848 398.305 149.885H503.992C500.691 174.848 481.957 180.467 479.81 181.111L479.794 181.116C477.725 181.736 452.906 187.114 426.847 181.943Z" fill="#F1F1F1"/>
<g clip-path="url(#clip1_1_230)">
<path d="M501.913 61.9852C503.981 92.5952 479.776 97.559 451.448 97.559C423.12 97.559 398.294 93.0089 400.983 61.9852C403.349 34.6845 423.12 20 451.448 20C479.776 20 500.222 36.9595 501.913 61.9852Z" fill="#F1F1F1"/>
<path fill-rule="evenodd" clip-rule="evenodd" d="M406.575 42.1301C408.919 38.5451 414.641 31.2666 420.432 30.7702C427.671 30.1498 439.667 35.734 439.667 50.2117V66.5508H451.247V66.5592H462.83V50.2201C462.83 35.7424 474.825 30.1581 482.064 30.7786C487.855 31.275 493.784 38.752 496.128 42.3369C491.349 32.0429 481.705 25.4476 471.93 22.2917C464.109 19.7665 456.336 19.5182 451.249 19.6101V19.6017C446.162 19.5098 438.389 19.7579 430.567 22.2833C420.792 25.4393 411.355 31.836 406.575 42.1301Z" fill="#3C3135"/>
<path d="M443.804 85.1493C433.38 83.9911 426.224 78.462 423.949 75.8422L479.378 75.4286C474.828 82.6674 456.834 86.5971 443.804 85.1493Z" fill="#DF921C"/>
<path d="M451.458 81.8617C436.236 82.3581 425.95 77.2427 422.71 74.6229C422.71 74.0024 431.603 62.8339 451.458 62.2135C471.313 61.593 480 74.6229 479.38 75.2434C478.759 75.8638 470.486 81.2413 451.458 81.8617Z" fill="#FFC921"/>
<ellipse cx="465.811" cy="69.1331" rx="2.48189" ry="1.65459" transform="rotate(36.3995 465.811 69.1331)" fill="#2C2728"/>
<ellipse cx="2.48189" cy="1.65459" rx="2.48189" ry="1.65459" transform="matrix(-0.804899 0.593412 0.593412 0.804899 437.459 66.3285)" fill="#2C2728"/>
<path d="M410.337 54.3365C408.494 61.1498 411.155 67.7967 416.28 69.1829C421.405 70.569 427.053 66.1694 428.896 59.3561C430.739 52.5429 428.078 45.8959 422.953 44.5098C417.828 43.1237 412.179 47.5232 410.337 54.3365Z" fill="#292826"/>
<path d="M408 49C406.157 55.8133 409.506 54.8992 420 53.5C427.5 52.5 430.657 62.8133 432.5 56C434.343 49.1867 428.078 43.8861 422.953 42.5C417.828 41.1139 409.843 42.1867 408 49Z" fill="#F1F1F1"/>
<path d="M492.685 56.8544C492.98 63.9063 489.066 69.7969 483.941 70.0114C478.817 70.2259 474.423 64.6831 474.128 57.6312C473.833 50.5794 477.748 44.6888 482.872 44.4742C487.996 44.2597 492.39 49.8025 492.685 56.8544Z" fill="#292826"/>
<path d="M496.017 52.1696C496.312 59.2215 493.349 57.5872 483.753 53.895C476.895 51.2561 471.736 60.6113 471.441 53.5594C471.146 46.5075 478.173 42.7292 483.297 42.5146C488.422 42.3001 495.722 45.1177 496.017 52.1696Z" fill="#F1F1F1"/>
</g>
<path d="M415.677 91.5612L412.782 94.2499C415.057 101.075 433.936 100.455 454.767 100.455C470.486 100.455 482.137 96.9386 487.445 93.8362L486.204 91.5612H415.677Z" fill="#F1F1F1"/>
<path d="M487.698 93.2158C488.939 93.9741 491.421 95.5736 491.421 95.9045C491.421 96.3182 500.935 101.696 503.003 106.246C505.072 110.796 514.379 128.376 514.792 128.583C515.206 128.79 515.413 130.03 516.24 130.444C517.067 130.858 519.136 131.271 519.136 132.926C519.136 134.581 517.067 139.544 515.62 140.992C514.172 142.44 511.07 144.715 508.381 143.267C505.692 141.819 507.14 140.165 506.726 139.338C506.462 138.809 505.945 138.197 505.391 137.339C505.089 137.822 505.071 138.924 505.071 139.958C505.071 140.992 506.312 144.715 506.106 146.37C505.899 148.024 504.451 149.679 498.867 153.402C493.282 157.124 471.152 158.986 469.498 159.193C467.843 159.399 441.99 160.02 422.962 158.159C403.934 156.297 399.798 151.333 397.523 149.265C395.248 147.197 395.662 142.854 396.489 141.819C397.151 140.992 397.016 138.579 396.866 137.476C396.686 137.874 396.555 138.097 396.489 138.097C395.868 138.097 395.248 139.338 395.041 140.578C394.834 141.819 392.146 144.922 388.63 143.267C385.113 141.613 383.459 135.615 383.045 133.546C382.632 131.478 385.114 130.858 385.734 130.651C386.355 130.444 386.975 129.617 387.182 128.583C387.389 127.549 391.732 120.723 395.248 112.657C398.764 104.591 408.898 96.7318 409.519 96.3182C410.015 95.9872 412.483 94.112 413.655 93.2158C414.276 96.1113 429.788 98.1796 453.366 98.8C472.228 99.2964 484.113 95.284 487.698 93.2158Z" fill="#980808"/>
<path d="M389.268 143.06C388.607 143.06 385.821 139.613 384.512 137.89C384.167 138.234 383.395 139.337 383.064 140.992C382.65 143.06 384.305 145.749 385.752 145.956C386.911 146.121 388.579 144.094 389.268 143.06Z" fill="#F1F1F1"/>
<path d="M512.885 143.06C513.547 143.06 516.332 139.613 517.642 137.89C517.987 138.234 518.759 139.337 519.09 140.992C519.503 143.06 517.849 145.749 516.401 145.956C515.243 146.121 513.575 144.094 512.885 143.06Z" fill="#F1F1F1"/>
<path d="M466.877 125.222C466.992 125.103 467.131 125.007 467.287 124.937C467.442 124.868 467.611 124.828 467.784 124.819C467.957 124.81 468.13 124.832 468.293 124.885C468.456 124.937 468.606 125.018 468.736 125.124L472.937 128.574L471.185 130.382L466.983 126.933C466.854 126.827 466.749 126.699 466.673 126.556C466.598 126.412 466.554 126.257 466.545 126.098C466.535 125.939 466.559 125.78 466.616 125.63C466.673 125.479 466.761 125.341 466.877 125.222Z" fill="white"/>
<path d="M490.117 130.382L488.364 128.573L492.566 125.124C492.826 124.91 493.169 124.8 493.517 124.819C493.866 124.837 494.192 124.982 494.425 125.222C494.657 125.462 494.777 125.777 494.757 126.098C494.737 126.418 494.579 126.719 494.319 126.933L490.117 130.382Z" fill="white"/>
<path d="M491.865 132.626C492.802 136.446 494.085 138.904 493.446 140.315C493.11 141.057 492.421 141.679 491.28 141.679C489.501 141.679 489.501 139.748 487.722 139.748C485.943 139.748 485.943 141.679 484.165 141.679C482.386 141.679 482.386 139.748 480.608 139.748C478.829 139.748 478.829 141.679 477.05 141.679C475.272 141.679 475.272 139.748 473.493 139.748C471.715 139.748 471.715 141.679 469.936 141.679C468.881 141.679 468.284 141.107 467.905 140.445C466.995 138.856 469.116 135.36 469.936 132.276C470.843 128.869 470.767 124.625 470.889 122.066C471.123 117.13 475.24 113.12 480.609 113.12C485.977 113.12 489.938 117.138 490.329 122.066C490.54 124.722 491.007 129.129 491.865 132.626Z" fill="white"/>
<path d="M476.953 122.643C477.548 122.643 478.03 122.199 478.03 121.651C478.03 121.104 477.548 120.66 476.953 120.66C476.358 120.66 475.875 121.104 475.875 121.651C475.875 122.199 476.358 122.643 476.953 122.643Z" fill="#292A2E"/>
<path d="M484.339 122.643C484.934 122.643 485.416 122.199 485.416 121.651C485.416 121.104 484.934 120.66 484.339 120.66C483.744 120.66 483.261 121.104 483.261 121.651C483.261 122.199 483.744 122.643 484.339 122.643Z" fill="#292A2E"/>
<path d="M482.582 124.328C482.644 124.328 482.706 124.34 482.762 124.365C482.818 124.389 482.868 124.425 482.907 124.469C482.946 124.514 482.974 124.566 482.989 124.621C483.004 124.677 483.005 124.735 482.993 124.791C482.762 125.785 481.802 126.41 480.653 126.41C479.503 126.41 478.543 125.785 478.312 124.791C478.3 124.735 478.301 124.677 478.316 124.621C478.331 124.565 478.359 124.514 478.398 124.469C478.438 124.425 478.487 124.389 478.543 124.365C478.6 124.34 478.661 124.328 478.723 124.328H482.582Z" fill="white"/>
<path d="M480.652 126.531C479.414 126.531 478.422 125.842 478.183 124.816C478.166 124.743 478.167 124.667 478.186 124.595C478.205 124.522 478.242 124.454 478.293 124.397C478.345 124.337 478.41 124.29 478.484 124.257C478.559 124.225 478.64 124.208 478.722 124.208H482.581C482.664 124.208 482.745 124.225 482.819 124.257C482.894 124.29 482.959 124.337 483.011 124.397C483.062 124.454 483.098 124.522 483.117 124.595C483.136 124.667 483.138 124.743 483.121 124.816C482.882 125.842 481.89 126.531 480.652 126.531ZM478.722 124.449C478.679 124.449 478.636 124.458 478.597 124.475C478.558 124.492 478.524 124.517 478.497 124.548C478.47 124.578 478.451 124.613 478.441 124.651C478.431 124.688 478.431 124.728 478.44 124.766C478.651 125.677 479.54 126.289 480.652 126.289C481.763 126.289 482.652 125.677 482.864 124.766C482.872 124.728 482.872 124.688 482.862 124.651C482.852 124.613 482.833 124.578 482.806 124.548C482.779 124.517 482.745 124.492 482.706 124.475C482.667 124.458 482.624 124.449 482.581 124.449H478.722Z" fill="#292A2E"/>
<path d="M728.224 183.645C727.893 183.314 728.086 181.439 728.224 180.542C730.086 177.854 717.056 175.579 716.228 178.681C715.401 181.783 710.851 185.713 706.714 187.781C702.578 189.849 701.13 192.952 701.75 195.02C702.371 197.088 704.853 197.502 705.473 197.916C706.094 198.329 721.399 199.157 726.362 197.916C731.326 196.675 732.567 192.952 732.567 191.09C732.567 189.229 728.638 184.058 728.224 183.645Z" fill="#382E35"/>
<path d="M774.207 183.645C774.538 183.314 774.345 181.439 774.207 180.542C772.345 177.854 785.375 175.579 786.203 178.681C787.03 181.783 791.58 185.713 795.717 187.781C799.853 189.849 801.301 192.952 800.681 195.02C800.06 197.088 797.578 197.502 796.958 197.916C796.337 198.329 781.032 199.157 776.069 197.916C771.105 196.675 769.864 192.952 769.864 191.09C769.864 189.229 773.793 184.058 774.207 183.645Z" fill="#382E35"/>
<path d="M726.847 181.943C705.999 177.807 699.132 158.848 698.305 149.885H803.992C800.691 174.848 781.956 180.467 779.81 181.111L779.794 181.116C777.725 181.736 752.906 187.114 726.847 181.943Z" fill="#F1F1F1"/>
<g clip-path="url(#clip2_1_230)">
<path d="M801.913 61.9852C803.981 92.5952 779.776 97.559 751.448 97.559C723.12 97.559 698.294 93.0089 700.983 61.9852C703.349 34.6845 723.12 20 751.448 20C779.776 20 800.222 36.9595 801.913 61.9852Z" fill="#F1F1F1"/>
<path fill-rule="evenodd" clip-rule="evenodd" d="M706.575 42.1301C708.919 38.5451 714.641 31.2666 720.432 30.7702C727.671 30.1498 739.667 35.734 739.667 50.2117V66.5508H751.247V66.5592H762.83V50.2201C762.83 35.7424 774.825 30.1581 782.064 30.7786C787.855 31.275 793.784 38.752 796.128 42.3369C791.349 32.0429 781.705 25.4476 771.93 22.2917C764.109 19.7665 756.336 19.5182 751.249 19.6101V19.6017C746.162 19.5098 738.389 19.7579 730.567 22.2833C720.792 25.4393 711.355 31.836 706.575 42.1301Z" fill="#3C3135"/>
<path d="M743.804 85.1493C733.38 83.9911 726.224 78.462 723.949 75.8422L779.378 75.4286C774.828 82.6674 756.834 86.5971 743.804 85.1493Z" fill="#DF921C"/>
<path d="M751.458 81.8617C736.236 82.3581 725.95 77.2427 722.71 74.6229C722.71 74.0024 731.603 62.8339 751.458 62.2135C771.313 61.593 780 74.6229 779.38 75.2434C778.759 75.8638 770.486 81.2413 751.458 81.8617Z" fill="#FFC921"/>
<ellipse cx="765.811" cy="69.1331" rx="2.48189" ry="1.65459" transform="rotate(36.3995 765.811 69.1331)" fill="#2C2728"/>
<ellipse cx="2.48189" cy="1.65459" rx="2.48189" ry="1.65459" transform="matrix(-0.804899 0.593412 0.593412 0.804899 737.459 66.3285)" fill="#2C2728"/>
<path d="M710.337 54.3365C708.494 61.1498 711.155 67.7967 716.28 69.1829C721.405 70.569 727.053 66.1694 728.896 59.3561C730.739 52.5429 728.078 45.8959 722.953 44.5098C717.828 43.1237 712.179 47.5232 710.337 54.3365Z" fill="#292826"/>
<path d="M706 51.5C704.157 58.3133 707.5 58 719 57C726.538 56.3445 730.657 62.8133 732.5 56C734.343 49.1867 728.078 43.8861 722.953 42.5C717.828 41.1139 707.843 44.6867 706 51.5Z" fill="#F1F1F1"/>
<path d="M729 66C729 67.6568 721.971 70.9817 717 70.9817C712.029 70.9817 705.5 67.6568 705.5 66C705.5 64.3431 707 62 717 62.5C728 63.05 729 64.3431 729 66Z" fill="#F1F1F1"/>
<path d="M792.915 54.4956C794.758 61.3089 792.097 67.9558 786.972 69.342C781.847 70.7281 776.198 66.3285 774.356 59.5152C772.513 52.702 775.174 46.055 780.299 44.6689C785.424 43.2828 791.072 47.6823 792.915 54.4956Z" fill="#292826"/>
<path d="M797.252 51.6591C799.094 58.4724 795.752 58.1591 784.252 57.1591C776.714 56.5036 772.594 62.9724 770.752 56.1591C768.909 49.3458 775.174 44.0452 780.299 42.6591C785.424 41.273 795.409 44.8458 797.252 51.6591Z" fill="#F1F1F1"/>
<path d="M774.252 66.1591C774.252 67.816 781.281 71.1408 786.252 71.1408C791.222 71.1408 797.752 67.816 797.752 66.1591C797.752 64.5022 796.252 62.1591 786.252 62.6591C775.252 63.2091 774.252 64.5022 774.252 66.1591Z" fill="#F1F1F1"/>
</g>
<path d="M715.677 91.5612L712.782 94.2499C715.057 101.075 733.936 100.455 754.767 100.455C770.486 100.455 782.137 96.9386 787.445 93.8362L786.204 91.5612H715.677Z" fill="#F1F1F1"/>
<path d="M787.698 93.2158C788.939 93.9741 791.421 95.5736 791.421 95.9045C791.421 96.3182 800.935 101.696 803.003 106.246C805.072 110.796 814.379 128.376 814.792 128.583C815.206 128.79 815.413 130.03 816.24 130.444C817.067 130.858 819.136 131.271 819.136 132.926C819.136 134.581 817.067 139.544 815.62 140.992C814.172 142.44 811.07 144.715 808.381 143.267C805.692 141.819 807.14 140.165 806.726 139.338C806.462 138.809 805.945 138.197 805.39 137.339C805.089 137.822 805.071 138.924 805.071 139.958C805.071 140.992 806.312 144.715 806.106 146.37C805.899 148.024 804.451 149.679 798.867 153.402C793.282 157.124 771.152 158.986 769.498 159.193C767.843 159.399 741.99 160.02 722.962 158.159C703.934 156.297 699.798 151.333 697.523 149.265C695.248 147.197 695.662 142.854 696.489 141.819C697.151 140.992 697.016 138.579 696.866 137.476C696.686 137.874 696.555 138.097 696.489 138.097C695.868 138.097 695.248 139.338 695.041 140.578C694.834 141.819 692.146 144.922 688.629 143.267C685.113 141.613 683.459 135.615 683.045 133.546C682.632 131.478 685.114 130.858 685.734 130.651C686.355 130.444 686.975 129.617 687.182 128.583C687.389 127.549 691.732 120.723 695.248 112.657C698.764 104.591 708.898 96.7318 709.519 96.3182C710.015 95.9872 712.483 94.112 713.655 93.2158C714.276 96.1113 729.788 98.1796 753.366 98.8C772.228 99.2964 784.113 95.284 787.698 93.2158Z" fill="#980808"/>
<path d="M689.268 143.06C688.607 143.06 685.821 139.613 684.511 137.89C684.167 138.234 683.395 139.337 683.064 140.992C682.65 143.06 684.305 145.749 685.752 145.956C686.911 146.121 688.579 144.094 689.268 143.06Z" fill="#F1F1F1"/>
<path d="M812.885 143.06C813.547 143.06 816.332 139.613 817.642 137.89C817.987 138.234 818.759 139.337 819.09 140.992C819.503 143.06 817.849 145.749 816.401 145.956C815.243 146.121 813.575 144.094 812.885 143.06Z" fill="#F1F1F1"/>
<path d="M766.842 124.222C766.953 124.103 767.087 124.007 767.237 123.937C767.386 123.868 767.549 123.828 767.715 123.819C767.881 123.81 768.047 123.832 768.204 123.885C768.361 123.937 768.505 124.018 768.629 124.124L772.668 127.574L770.983 129.382L766.944 125.933C766.82 125.827 766.719 125.699 766.647 125.556C766.575 125.412 766.533 125.257 766.523 125.098C766.514 124.939 766.537 124.78 766.592 124.63C766.647 124.479 766.732 124.341 766.842 124.222Z" fill="white"/>
<path d="M789.179 129.382L787.494 127.573L791.532 124.124C791.783 123.91 792.112 123.8 792.447 123.819C792.782 123.837 793.096 123.982 793.319 124.222C793.542 124.462 793.657 124.777 793.638 125.098C793.619 125.418 793.467 125.719 793.217 125.933L789.179 129.382Z" fill="white"/>
<path d="M790.859 131.626C791.76 135.446 792.993 137.904 792.379 139.315C792.056 140.057 791.393 140.679 790.297 140.679C788.587 140.679 788.587 138.748 786.877 138.748C785.167 138.748 785.168 140.679 783.458 140.679C781.749 140.679 781.749 138.748 780.039 138.748C778.33 138.748 778.33 140.679 776.62 140.679C774.911 140.679 774.911 138.748 773.202 138.748C771.492 138.748 771.493 140.679 769.783 140.679C768.768 140.679 768.195 140.107 767.831 139.445C766.957 137.856 768.994 134.36 769.783 131.276C770.655 127.869 770.582 123.625 770.699 121.066C770.924 116.13 774.881 112.12 780.04 112.12C785.2 112.12 789.007 116.138 789.382 121.066C789.585 123.722 790.034 128.129 790.859 131.626Z" fill="white"/>
<path d="M776.527 121.643C777.098 121.643 777.562 121.199 777.562 120.651C777.562 120.104 777.098 119.66 776.527 119.66C775.955 119.66 775.491 120.104 775.491 120.651C775.491 121.199 775.955 121.643 776.527 121.643Z" fill="#292A2E"/>
<path d="M783.625 121.643C784.197 121.643 784.661 121.199 784.661 120.651C784.661 120.104 784.197 119.66 783.625 119.66C783.053 119.66 782.59 120.104 782.59 120.651C782.59 121.199 783.053 121.643 783.625 121.643Z" fill="#292A2E"/>
<path d="M781.937 123.328C781.997 123.328 782.056 123.34 782.11 123.365C782.164 123.389 782.211 123.425 782.249 123.469C782.287 123.514 782.314 123.566 782.328 123.621C782.343 123.677 782.344 123.735 782.332 123.791C782.11 124.785 781.187 125.41 780.083 125.41C778.978 125.41 778.055 124.785 777.833 123.791C777.821 123.735 777.822 123.677 777.837 123.621C777.851 123.565 777.878 123.514 777.916 123.469C777.954 123.425 778.001 123.389 778.055 123.365C778.109 123.34 778.169 123.328 778.228 123.328H781.937Z" fill="white"/>
<path d="M780.082 125.531C778.892 125.531 777.938 124.842 777.709 123.816C777.693 123.743 777.694 123.667 777.712 123.595C777.731 123.522 777.766 123.454 777.815 123.397C777.865 123.337 777.927 123.29 777.999 123.257C778.07 123.225 778.148 123.208 778.228 123.208H781.936C782.016 123.208 782.094 123.225 782.165 123.257C782.237 123.29 782.299 123.337 782.349 123.397C782.398 123.454 782.433 123.522 782.452 123.595C782.47 123.667 782.471 123.743 782.455 123.816C782.225 124.842 781.272 125.531 780.082 125.531ZM778.227 123.449C778.186 123.449 778.145 123.458 778.107 123.475C778.07 123.492 778.037 123.517 778.011 123.548C777.985 123.578 777.967 123.613 777.957 123.651C777.948 123.688 777.947 123.728 777.956 123.766C778.159 124.677 779.013 125.289 780.082 125.289C781.15 125.289 782.004 124.677 782.208 123.766C782.216 123.728 782.215 123.688 782.206 123.651C782.196 123.613 782.178 123.578 782.153 123.548C782.126 123.517 782.094 123.492 782.056 123.475C782.019 123.458 781.977 123.449 781.936 123.449H778.227Z" fill="#292A2E"/>
<path d="M1028.22 183.645C1027.89 183.314 1028.09 181.439 1028.22 180.542C1030.09 177.854 1017.06 175.579 1016.23 178.681C1015.4 181.783 1010.85 185.713 1006.71 187.781C1002.58 189.849 1001.13 192.952 1001.75 195.02C1002.37 197.088 1004.85 197.502 1005.47 197.916C1006.09 198.329 1021.4 199.157 1026.36 197.916C1031.33 196.675 1032.57 192.952 1032.57 191.09C1032.57 189.229 1028.64 184.058 1028.22 183.645Z" fill="#382E35"/>
<path d="M1074.21 183.645C1074.54 183.314 1074.34 181.439 1074.21 180.542C1072.35 177.854 1085.38 175.579 1086.2 178.681C1087.03 181.783 1091.58 185.713 1095.72 187.781C1099.85 189.849 1101.3 192.952 1100.68 195.02C1100.06 197.088 1097.58 197.502 1096.96 197.916C1096.34 198.329 1081.03 199.157 1076.07 197.916C1071.1 196.675 1069.86 192.952 1069.86 191.09C1069.86 189.229 1073.79 184.058 1074.21 183.645Z" fill="#382E35"/>
<path d="M1026.85 181.943C1006 177.807 999.132 158.848 998.305 149.885H1103.99C1100.69 174.848 1081.96 180.467 1079.81 181.111L1079.79 181.116C1077.73 181.736 1052.91 187.114 1026.85 181.943Z" fill="#F1F1F1"/>
<g clip-path="url(#clip3_1_230)">
<path d="M1101.91 61.9852C1103.98 92.5952 1079.78 97.559 1051.45 97.559C1023.12 97.559 998.294 93.0089 1000.98 61.9852C1003.35 34.6845 1023.12 20 1051.45 20C1079.78 20 1100.22 36.9595 1101.91 61.9852Z" fill="#F1F1F1"/>
<path fill-rule="evenodd" clip-rule="evenodd" d="M1006.58 42.1301C1008.92 38.5451 1014.64 31.2666 1020.43 30.7702C1027.67 30.1498 1039.67 35.734 1039.67 50.2117V66.5508H1051.25V66.5592H1062.83V50.2201C1062.83 35.7424 1074.83 30.1581 1082.06 30.7786C1087.86 31.275 1093.78 38.752 1096.13 42.3369C1091.35 32.0429 1081.7 25.4476 1071.93 22.2917C1064.11 19.7665 1056.34 19.5182 1051.25 19.6101V19.6017C1046.16 19.5098 1038.39 19.7579 1030.57 22.2833C1020.79 25.4393 1011.35 31.836 1006.58 42.1301Z" fill="#3C3135"/>
<path d="M1043.8 85.1493C1033.38 83.9911 1026.22 78.462 1023.95 75.8422L1079.38 75.4286C1074.83 82.6674 1056.83 86.5971 1043.8 85.1493Z" fill="#DF921C"/>
<path d="M1051.46 81.8617C1036.24 82.3581 1025.95 77.2427 1022.71 74.6229C1022.71 74.0024 1031.6 62.8339 1051.46 62.2135C1071.31 61.593 1080 74.6229 1079.38 75.2434C1078.76 75.8638 1070.49 81.2413 1051.46 81.8617Z" fill="#FFC921"/>
<ellipse cx="1065.81" cy="69.1331" rx="2.48189" ry="1.65459" transform="rotate(36.3995 1065.81 69.1331)" fill="#2C2728"/>
<ellipse cx="2.48189" cy="1.65459" rx="2.48189" ry="1.65459" transform="matrix(-0.804899 0.593412 0.593412 0.804899 1037.46 66.3285)" fill="#2C2728"/>
<path d="M1010.34 54.3365C1008.49 61.1498 1011.15 67.7967 1016.28 69.1829C1021.4 70.569 1027.05 66.1694 1028.9 59.3561C1030.74 52.5429 1028.08 45.8959 1022.95 44.5098C1017.83 43.1237 1012.18 47.5232 1010.34 54.3365Z" fill="#292826"/>
<path d="M1004.5 58C1002.66 64.8133 1007.5 60.3561 1019 59.3561C1026.54 58.7007 1031.16 66.1694 1033 59.3561C1034.84 52.5429 1028.08 43.8861 1022.95 42.5C1017.83 41.1139 1006.34 51.1867 1004.5 58Z" fill="#F1F1F1"/>
<path d="M1029 64.5C1029 66.1569 1021.97 70.9817 1017 70.9817C1012.03 70.9817 1005.5 67.6569 1005.5 66C1005.5 64.3432 1007 60.5 1017 61C1028 61.55 1029 62.8432 1029 64.5Z" fill="#F1F1F1"/>
<path d="M1092.23 54.4306C1094.07 61.2439 1091.41 67.8908 1086.28 69.2769C1081.16 70.6631 1075.51 66.2635 1073.67 59.4502C1071.82 52.6369 1074.49 45.99 1079.61 44.6039C1084.74 43.2177 1090.38 47.6173 1092.23 54.4306Z" fill="#292826"/>
<path d="M1098.06 58.0941C1099.91 64.9073 1095.06 60.4502 1083.56 59.4502C1076.03 58.7947 1071.41 66.2635 1069.56 59.4502C1067.72 52.6369 1074.49 43.9802 1079.61 42.5941C1084.74 41.2079 1096.22 51.2808 1098.06 58.0941Z" fill="#F1F1F1"/>
<path d="M1073.56 64.5941C1073.56 66.2509 1080.59 71.0757 1085.56 71.0757C1090.53 71.0757 1097.06 67.7509 1097.06 66.0941C1097.06 64.4372 1095.56 60.5941 1085.56 61.0941C1074.56 61.6441 1073.56 62.9372 1073.56 64.5941Z" fill="#F1F1F1"/>
</g>
<path d="M1015.68 91.5612L1012.78 94.2499C1015.06 101.075 1033.94 100.455 1054.77 100.455C1070.49 100.455 1082.14 96.9386 1087.45 93.8362L1086.2 91.5612H1015.68Z" fill="#F1F1F1"/>
<path d="M1087.7 93.2158C1088.94 93.9741 1091.42 95.5736 1091.42 95.9045C1091.42 96.3182 1100.94 101.696 1103 106.246C1105.07 110.796 1114.38 128.376 1114.79 128.583C1115.21 128.79 1115.41 130.03 1116.24 130.444C1117.07 130.858 1119.14 131.271 1119.14 132.926C1119.14 134.581 1117.07 139.544 1115.62 140.992C1114.17 142.44 1111.07 144.715 1108.38 143.267C1105.69 141.819 1107.14 140.165 1106.73 139.338C1106.46 138.809 1105.95 138.197 1105.39 137.339C1105.09 137.822 1105.07 138.924 1105.07 139.958C1105.07 140.992 1106.31 144.715 1106.11 146.37C1105.9 148.024 1104.45 149.679 1098.87 153.402C1093.28 157.124 1071.15 158.986 1069.5 159.193C1067.84 159.399 1041.99 160.02 1022.96 158.159C1003.93 156.297 999.798 151.333 997.523 149.265C995.248 147.197 995.662 142.854 996.489 141.819C997.151 140.992 997.016 138.579 996.866 137.476C996.686 137.874 996.555 138.097 996.489 138.097C995.868 138.097 995.248 139.338 995.041 140.578C994.834 141.819 992.146 144.922 988.629 143.267C985.113 141.613 983.459 135.615 983.045 133.546C982.632 131.478 985.114 130.858 985.734 130.651C986.355 130.444 986.975 129.617 987.182 128.583C987.389 127.549 991.732 120.723 995.248 112.657C998.764 104.591 1008.9 96.7318 1009.52 96.3182C1010.02 95.9872 1012.48 94.112 1013.66 93.2158C1014.28 96.1113 1029.79 98.1796 1053.37 98.8C1072.23 99.2964 1084.11 95.284 1087.7 93.2158Z" fill="#980808"/>
<path d="M989.268 143.06C988.607 143.06 985.821 139.613 984.512 137.89C984.167 138.234 983.395 139.337 983.064 140.992C982.65 143.06 984.305 145.749 985.752 145.956C986.911 146.121 988.579 144.094 989.268 143.06Z" fill="#F1F1F1"/>
<path d="M1112.89 143.06C1113.55 143.06 1116.33 139.613 1117.64 137.89C1117.99 138.234 1118.76 139.337 1119.09 140.992C1119.5 143.06 1117.85 145.749 1116.4 145.956C1115.24 146.121 1113.57 144.094 1112.89 143.06Z" fill="#F1F1F1"/>
<path d="M1066.88 124.222C1066.99 124.103 1067.13 124.007 1067.29 123.937C1067.44 123.868 1067.61 123.828 1067.78 123.819C1067.96 123.81 1068.13 123.832 1068.29 123.885C1068.46 123.937 1068.61 124.018 1068.74 124.124L1072.94 127.574L1071.18 129.382L1066.98 125.933C1066.85 125.827 1066.75 125.699 1066.67 125.556C1066.6 125.412 1066.55 125.257 1066.54 125.098C1066.53 124.939 1066.56 124.78 1066.62 124.63C1066.67 124.479 1066.76 124.341 1066.88 124.222Z" fill="white"/>
<path d="M1090.12 129.382L1088.36 127.573L1092.57 124.124C1092.83 123.91 1093.17 123.8 1093.52 123.819C1093.87 123.837 1094.19 123.982 1094.42 124.222C1094.66 124.462 1094.78 124.777 1094.76 125.098C1094.74 125.418 1094.58 125.719 1094.32 125.933L1090.12 129.382Z" fill="white"/>
<path d="M1091.86 131.626C1092.8 135.446 1094.09 137.904 1093.45 139.315C1093.11 140.057 1092.42 140.679 1091.28 140.679C1089.5 140.679 1089.5 138.748 1087.72 138.748C1085.94 138.748 1085.94 140.679 1084.16 140.679C1082.39 140.679 1082.39 138.748 1080.61 138.748C1078.83 138.748 1078.83 140.679 1077.05 140.679C1075.27 140.679 1075.27 138.748 1073.49 138.748C1071.71 138.748 1071.71 140.679 1069.94 140.679C1068.88 140.679 1068.28 140.107 1067.91 139.445C1067 137.856 1069.12 134.36 1069.94 131.276C1070.84 127.869 1070.77 123.625 1070.89 121.066C1071.12 116.13 1075.24 112.12 1080.61 112.12C1085.98 112.12 1089.94 116.138 1090.33 121.066C1090.54 123.722 1091.01 128.129 1091.86 131.626Z" fill="white"/>
<path d="M1076.95 121.643C1077.55 121.643 1078.03 121.199 1078.03 120.651C1078.03 120.104 1077.55 119.66 1076.95 119.66C1076.36 119.66 1075.88 120.104 1075.88 120.651C1075.88 121.199 1076.36 121.643 1076.95 121.643Z" fill="#292A2E"/>
<path d="M1084.34 121.643C1084.93 121.643 1085.42 121.199 1085.42 120.651C1085.42 120.104 1084.93 119.66 1084.34 119.66C1083.74 119.66 1083.26 120.104 1083.26 120.651C1083.26 121.199 1083.74 121.643 1084.34 121.643Z" fill="#292A2E"/>
<path d="M1082.58 123.328C1082.64 123.328 1082.71 123.34 1082.76 123.365C1082.82 123.389 1082.87 123.425 1082.91 123.469C1082.95 123.514 1082.97 123.566 1082.99 123.621C1083 123.677 1083.01 123.735 1082.99 123.791C1082.76 124.785 1081.8 125.41 1080.65 125.41C1079.5 125.41 1078.54 124.785 1078.31 123.791C1078.3 123.735 1078.3 123.677 1078.32 123.621C1078.33 123.565 1078.36 123.514 1078.4 123.469C1078.44 123.425 1078.49 123.389 1078.54 123.365C1078.6 123.34 1078.66 123.328 1078.72 123.328H1082.58Z" fill="white"/>
<path d="M1080.65 125.531C1079.41 125.531 1078.42 124.842 1078.18 123.816C1078.17 123.743 1078.17 123.667 1078.19 123.595C1078.21 123.522 1078.24 123.454 1078.29 123.397C1078.34 123.337 1078.41 123.29 1078.48 123.257C1078.56 123.225 1078.64 123.208 1078.72 123.208H1082.58C1082.66 123.208 1082.75 123.225 1082.82 123.257C1082.89 123.29 1082.96 123.337 1083.01 123.397C1083.06 123.454 1083.1 123.522 1083.12 123.595C1083.14 123.667 1083.14 123.743 1083.12 123.816C1082.88 124.842 1081.89 125.531 1080.65 125.531ZM1078.72 123.449C1078.68 123.449 1078.64 123.458 1078.6 123.475C1078.56 123.492 1078.52 123.517 1078.5 123.548C1078.47 123.578 1078.45 123.613 1078.44 123.651C1078.43 123.688 1078.43 123.728 1078.44 123.766C1078.65 124.677 1079.54 125.289 1080.65 125.289C1081.76 125.289 1082.65 124.677 1082.86 123.766C1082.87 123.728 1082.87 123.688 1082.86 123.651C1082.85 123.613 1082.83 123.578 1082.81 123.548C1082.78 123.517 1082.74 123.492 1082.71 123.475C1082.67 123.458 1082.62 123.449 1082.58 123.449H1078.72Z" fill="#292A2E"/>
<defs>
<clipPath id="clip0_1_230">
<rect width="101.254" height="77.559" fill="white" transform="translate(100.784 20)"/>
</clipPath>
<clipPath id="clip1_1_230">
<rect width="101.254" height="77.559" fill="white" transform="translate(400.784 20)"/>
</clipPath>
<clipPath id="clip2_1_230">
<rect width="101.254" height="77.559" fill="white" transform="translate(700.784 20)"/>
</clipPath>
<clipPath id="clip3_1_230">
<rect width="101.254" height="77.559" fill="white" transform="translate(1000.78 20)"/>
</clipPath>
</defs>
</svg>
