<svg width="1000" height="220" viewBox="0 0 1000 220" fill="none" xmlns="http://www.w3.org/2000/svg">
<path d="M77.5576 183.645C77.2267 183.314 77.4197 181.439 77.5576 180.542C79.4192 177.854 66.3891 175.579 65.5618 178.681C64.7345 181.783 60.1842 185.713 56.0478 187.781C51.9113 189.849 50.4635 192.952 51.084 195.02C51.7045 197.088 54.1864 197.502 54.8068 197.916C55.4273 198.329 70.7323 199.157 75.6961 197.916C80.6598 196.675 81.9008 192.952 81.9008 191.09C81.9008 189.229 77.9713 184.058 77.5576 183.645Z" fill="#382E35"/>
<path d="M123.541 183.645C123.872 183.314 123.678 181.439 123.541 180.542C121.679 177.854 134.709 175.579 135.536 178.681C136.364 181.783 140.914 185.713 145.05 187.781C149.187 189.849 150.635 192.952 150.014 195.02C149.394 197.088 146.912 197.502 146.291 197.916C145.671 198.329 130.366 199.157 125.402 197.916C120.438 196.675 119.197 192.952 119.197 191.09C119.197 189.229 123.127 184.058 123.541 183.645Z" fill="#382E35"/>
<path d="M76.1803 181.943C55.3324 177.807 48.4658 158.848 47.6385 149.885H153.326C150.025 174.848 131.29 180.467 129.143 181.111L129.127 181.116C127.059 181.736 102.24 187.114 76.1803 181.943Z" fill="#F1F1F1"/>
<g clip-path="url(#clip0_1_230)">
<path d="M151.247 61.9852C153.315 92.5952 129.11 97.559 100.782 97.559C72.4537 97.559 47.6279 93.0089 50.3166 61.9852C52.6826 34.6845 72.4537 20 100.782 20C129.11 20 149.556 36.9595 151.247 61.9852Z" fill="#F1F1F1"/>
<path fill-rule="evenodd" clip-rule="evenodd" d="M55.9088 42.1301C58.2528 38.5451 63.9749 31.2666 69.766 30.7702C77.0048 30.1498 89.0006 35.734 89.0006 50.2117V66.5508H100.581V66.5592H112.163V50.2201C112.163 35.7424 124.159 30.1581 131.398 30.7786C137.189 31.275 143.118 38.752 145.462 42.3369C140.682 32.0429 131.038 25.4476 121.263 22.2917C113.442 19.7665 105.67 19.5182 100.583 19.6101V19.6017C95.4957 19.5098 87.7223 19.7579 79.9003 22.2833C70.1254 25.4393 60.6881 31.836 55.9088 42.1301Z" fill="#3C3135"/>
<path d="M93.1378 85.1493C82.7139 83.9911 75.5578 78.462 73.2827 75.8422L128.712 75.4286C124.161 82.6674 106.168 86.5971 93.1378 85.1493Z" fill="#DF921C"/>
<path d="M100.792 81.8617C85.5697 82.3581 75.2836 77.2427 72.0434 74.6229C72.0434 74.0024 80.9368 62.8339 100.792 62.2135C120.647 61.593 129.334 74.6229 128.713 75.2434C128.093 75.8638 119.82 81.2413 100.792 81.8617Z" fill="#FFC921"/>
<ellipse cx="115.145" cy="69.1331" rx="2.48189" ry="1.65459" transform="rotate(36.3995 115.145 69.1331)" fill="#2C2728"/>
<ellipse cx="2.48189" cy="1.65459" rx="2.48189" ry="1.65459" transform="matrix(-0.804899 0.593412 0.593412 0.804899 86.7929 66.3285)" fill="#2C2728"/>
<path d="M143.644 53.992C145.486 60.8052 142.825 67.4522 137.7 68.8383C132.575 70.2244 126.927 65.8249 125.084 59.0116C123.241 52.1983 125.902 45.5514 131.027 44.1652C136.152 42.7791 141.801 47.1787 143.644 53.992Z" fill="#292826"/>
<ellipse cx="9.61312" cy="12.7798" rx="9.61312" ry="12.7798" transform="matrix(-0.965317 -0.261082 -0.261082 0.965317 79.42 46.5292)" fill="#292826"/>
</g>
<path d="M65.0109 91.5612L62.1154 94.2499C64.3904 101.075 83.2699 100.455 104.101 100.455C119.819 100.455 131.47 96.9386 136.779 93.8362L135.538 91.5612H65.0109Z" fill="#F1F1F1"/>
<path d="M137.032 93.2158C138.273 93.9741 140.755 95.5736 140.755 95.9045C140.755 96.3182 150.269 101.696 152.337 106.246C154.405 110.796 163.712 128.376 164.126 128.583C164.54 128.79 164.746 130.03 165.574 130.444C166.401 130.858 168.469 131.271 168.469 132.926C168.469 134.581 166.401 139.544 164.953 140.992C163.506 142.44 160.403 144.715 157.714 143.267C155.026 141.819 156.474 140.165 156.06 139.338C155.796 138.809 155.279 138.197 154.724 137.339C154.423 137.822 154.405 138.924 154.405 139.958C154.405 140.992 155.646 144.715 155.439 146.37C155.232 148.024 153.785 149.679 148.2 153.402C142.616 157.124 120.486 158.986 118.831 159.193C117.177 159.399 91.3237 160.02 72.2959 158.159C53.2681 156.297 49.1316 151.333 46.8566 149.265C44.5815 147.197 44.9951 142.854 45.8224 141.819C46.4843 140.992 46.3497 138.579 46.1996 137.476C46.0192 137.874 45.8889 138.097 45.8224 138.097C45.202 138.097 44.5815 139.338 44.3747 140.578C44.1678 141.819 41.4791 144.922 37.9631 143.267C34.4471 141.613 32.7927 135.615 32.3791 133.546C31.9654 131.478 34.4473 130.858 35.0678 130.651C35.6882 130.444 36.3087 129.617 36.5155 128.583C36.7224 127.549 41.0657 120.723 44.5817 112.657C48.0977 104.591 58.2321 96.7318 58.8525 96.3182C59.3489 95.9872 61.817 94.112 62.989 93.2158C63.6095 96.1113 79.1213 98.1796 102.699 98.8C121.562 99.2964 133.447 95.284 137.032 93.2158Z" fill="#980808"/>
<path d="M38.6021 143.06C37.9402 143.06 35.155 139.613 33.8451 137.89C33.5004 138.234 32.7283 139.337 32.3974 140.992C31.9837 143.06 33.6383 145.749 35.0861 145.956C36.2443 146.121 37.9127 144.094 38.6021 143.06Z" fill="#F1F1F1"/>
<path d="M162.219 143.06C162.881 143.06 165.666 139.613 166.976 137.89C167.32 138.234 168.093 139.337 168.424 140.992C168.837 143.06 167.183 145.749 165.735 145.956C164.577 146.121 162.908 144.094 162.219 143.06Z" fill="#F1F1F1"/>
<path d="M86.8766 122.222C86.9917 122.103 87.131 122.007 87.2867 121.937C87.4424 121.868 87.6114 121.828 87.7841 121.819C87.9567 121.81 88.1295 121.832 88.2928 121.885C88.4561 121.937 88.6065 122.018 88.7355 122.124L92.9374 125.574L91.1846 127.382L86.9827 123.933C86.8537 123.827 86.7486 123.699 86.6734 123.556C86.5982 123.412 86.5545 123.257 86.5446 123.098C86.5347 122.939 86.559 122.78 86.6159 122.63C86.6729 122.479 86.7615 122.341 86.8766 122.222Z" fill="white"/>
<path d="M110.117 127.382L108.364 125.573L112.566 122.124C112.826 121.91 113.169 121.8 113.517 121.819C113.866 121.837 114.192 121.982 114.425 122.222C114.657 122.462 114.777 122.777 114.757 123.098C114.737 123.418 114.579 123.719 114.319 123.933L110.117 127.382Z" fill="white"/>
<path d="M111.865 129.626C112.802 133.446 114.085 135.904 113.446 137.315C113.11 138.057 112.421 138.679 111.28 138.679C109.501 138.679 109.501 136.748 107.722 136.748C105.943 136.748 105.943 138.679 104.165 138.679C102.386 138.679 102.386 136.748 100.608 136.748C98.829 136.748 98.8289 138.679 97.0502 138.679C95.2716 138.679 95.2717 136.748 93.4931 136.748C91.7146 136.748 91.7148 138.679 89.9364 138.679C88.8805 138.679 88.2836 138.107 87.9051 137.445C86.9954 135.856 89.1155 132.36 89.9364 129.276C90.8434 125.869 90.767 121.625 90.8887 119.066C91.1234 114.13 95.2401 110.12 100.609 110.12C105.977 110.12 109.938 114.138 110.329 119.066C110.54 121.722 111.007 126.129 111.865 129.626Z" fill="white"/>
<path d="M96.9526 119.643C97.5476 119.643 98.03 119.199 98.03 118.651C98.03 118.104 97.5476 117.66 96.9526 117.66C96.3575 117.66 95.8751 118.104 95.8751 118.651C95.8751 119.199 96.3575 119.643 96.9526 119.643Z" fill="#292A2E"/>
<path d="M104.339 119.643C104.934 119.643 105.416 119.199 105.416 118.651C105.416 118.104 104.934 117.66 104.339 117.66C103.744 117.66 103.261 118.104 103.261 118.651C103.261 119.199 103.744 119.643 104.339 119.643Z" fill="#292A2E"/>
<path d="M102.582 121.328C102.644 121.328 102.706 121.34 102.762 121.365C102.818 121.389 102.868 121.425 102.907 121.469C102.946 121.514 102.974 121.566 102.989 121.621C103.004 121.677 103.005 121.735 102.993 121.791C102.762 122.785 101.802 123.41 100.652 123.41C99.5032 123.41 98.5432 122.785 98.3122 121.791C98.2997 121.735 98.3009 121.677 98.3158 121.621C98.3306 121.565 98.3587 121.514 98.3981 121.469C98.4375 121.425 98.4871 121.389 98.5433 121.365C98.5995 121.34 98.661 121.328 98.7232 121.328H102.582Z" fill="white"/>
<path d="M100.652 123.531C99.4135 123.531 98.4216 122.842 98.1833 121.816C98.1663 121.743 98.1673 121.667 98.1863 121.595C98.2053 121.522 98.2418 121.454 98.293 121.397C98.3447 121.337 98.41 121.29 98.4844 121.257C98.5587 121.225 98.64 121.208 98.7224 121.208H102.581C102.664 121.208 102.745 121.225 102.819 121.257C102.894 121.29 102.959 121.337 103.011 121.397C103.062 121.454 103.098 121.522 103.117 121.595C103.136 121.667 103.137 121.743 103.121 121.816C102.882 122.842 101.89 123.531 100.652 123.531ZM98.7222 121.449C98.6789 121.449 98.6362 121.458 98.5971 121.475C98.5581 121.492 98.5238 121.517 98.4966 121.548C98.47 121.578 98.4511 121.613 98.4412 121.651C98.4313 121.688 98.4307 121.728 98.4395 121.766C98.6512 122.677 99.5401 123.289 100.651 123.289C101.763 123.289 102.652 122.677 102.864 121.766C102.872 121.728 102.872 121.688 102.862 121.651C102.852 121.613 102.833 121.578 102.806 121.548C102.779 121.517 102.745 121.492 102.706 121.475C102.667 121.458 102.624 121.449 102.581 121.449H98.7222Z" fill="#292A2E"/>
<path d="M277.558 183.645C277.227 183.314 277.42 181.439 277.558 180.542C279.419 177.854 266.389 175.579 265.562 178.681C264.735 181.783 260.184 185.713 256.048 187.781C251.911 189.849 250.464 192.952 251.084 195.02C251.704 197.088 254.186 197.502 254.807 197.916C255.427 198.329 270.732 199.157 275.696 197.916C280.66 196.675 281.901 192.952 281.901 191.09C281.901 189.229 277.971 184.058 277.558 183.645Z" fill="#382E35"/>
<path d="M323.541 183.645C323.872 183.314 323.678 181.439 323.541 180.542C321.679 177.854 334.709 175.579 335.536 178.681C336.364 181.783 340.914 185.713 345.05 187.781C349.187 189.849 350.635 192.952 350.014 195.02C349.394 197.088 346.912 197.502 346.291 197.916C345.671 198.329 330.366 199.157 325.402 197.916C320.438 196.675 319.197 192.952 319.197 191.09C319.197 189.229 323.127 184.058 323.541 183.645Z" fill="#382E35"/>
<path d="M276.18 181.943C255.332 177.807 248.466 158.848 247.639 149.885H353.326C350.025 174.848 331.29 180.467 329.143 181.111L329.127 181.116C327.059 181.736 302.24 187.114 276.18 181.943Z" fill="#F1F1F1"/>
<g clip-path="url(#clip1_1_230)">
<path d="M351.247 61.9852C353.315 92.5952 329.11 97.559 300.782 97.559C272.454 97.559 247.628 93.0089 250.317 61.9852C252.683 34.6845 272.454 20 300.782 20C329.11 20 349.556 36.9595 351.247 61.9852Z" fill="#F1F1F1"/>
<path fill-rule="evenodd" clip-rule="evenodd" d="M255.909 42.1301C258.253 38.5451 263.975 31.2666 269.766 30.7702C277.005 30.1498 289.001 35.734 289.001 50.2117V66.5508H300.581V66.5592H312.163V50.2201C312.163 35.7424 324.159 30.1581 331.398 30.7786C337.189 31.275 343.118 38.752 345.462 42.3369C340.682 32.0429 331.038 25.4476 321.263 22.2917C313.442 19.7665 305.67 19.5182 300.583 19.6101V19.6017C295.496 19.5098 287.722 19.7579 279.9 22.2833C270.125 25.4393 260.688 31.836 255.909 42.1301Z" fill="#3C3135"/>
<path d="M293.138 85.1493C282.714 83.9911 275.558 78.462 273.283 75.8422L328.712 75.4286C324.161 82.6674 306.168 86.5971 293.138 85.1493Z" fill="#DF921C"/>
<path d="M300.792 81.8617C285.57 82.3581 275.284 77.2427 272.043 74.6229C272.043 74.0024 280.937 62.8339 300.792 62.2135C320.647 61.593 329.334 74.6229 328.713 75.2434C328.093 75.8638 319.82 81.2413 300.792 81.8617Z" fill="#FFC921"/>
<ellipse cx="315.145" cy="69.1331" rx="2.48189" ry="1.65459" transform="rotate(36.3995 315.145 69.1331)" fill="#2C2728"/>
<ellipse cx="2.48189" cy="1.65459" rx="2.48189" ry="1.65459" transform="matrix(-0.804899 0.593412 0.593412 0.804899 286.793 66.3285)" fill="#2C2728"/>
<path d="M258.648 54.8544C258.353 61.9063 262.268 67.7969 267.392 68.0114C272.516 68.2259 276.91 62.6832 277.205 55.6313C277.5 48.5794 273.585 42.6888 268.461 42.4743C263.337 42.2597 258.943 47.8025 258.648 54.8544Z" fill="#292826"/>
<path d="M255.875 47C255.58 54.0519 257.269 48.3306 267.392 47C275 46 278.705 55.5519 279 48.5C279.295 41.4481 273.719 39.7292 268.595 39.5146C263.47 39.3001 256.17 39.9481 255.875 47Z" fill="#F1F1F1"/>
<path d="M255.875 63.5C254.25 66.5 258.648 69.5 267.392 70.5C274.693 71.3349 274.333 69.5 279.833 65C280.128 57.9481 275 66 267.392 66.5C260 66.5 257.5 60.5 255.875 63.5Z" fill="#F1F1F1"/>
<path d="M342.231 54.8582C342.526 61.9101 338.611 67.8007 333.486 68.0152C328.362 68.2297 323.968 62.687 323.673 55.6351C323.378 48.5832 327.293 42.6926 332.417 42.4781C337.542 42.2635 341.935 47.8063 342.231 54.8582Z" fill="#292826"/>
<path d="M345.004 47.0038C345.299 54.0557 343.609 48.3344 333.486 47.0038C325.878 46.0038 322.174 55.5557 321.878 48.5038C321.583 41.4519 327.159 39.733 332.284 39.5184C337.408 39.3039 344.708 39.9519 345.004 47.0038Z" fill="#F1F1F1"/>
<path d="M345.004 63.5038C346.629 66.5038 342.231 69.5038 333.486 70.5038C326.186 71.3387 326.545 69.5038 321.045 65.0038C320.75 57.9519 325.878 66.0038 333.486 66.5038C340.878 66.5038 343.378 60.5038 345.004 63.5038Z" fill="#F1F1F1"/>
</g>
<path d="M265.011 91.5612L262.115 94.2499C264.39 101.075 283.27 100.455 304.101 100.455C319.819 100.455 331.47 96.9386 336.779 93.8362L335.538 91.5612H265.011Z" fill="#F1F1F1"/>
<path d="M337.032 93.2158C338.273 93.9741 340.755 95.5736 340.755 95.9045C340.755 96.3182 350.269 101.696 352.337 106.246C354.405 110.796 363.712 128.376 364.126 128.583C364.54 128.79 364.746 130.03 365.574 130.444C366.401 130.858 368.469 131.271 368.469 132.926C368.469 134.581 366.401 139.544 364.953 140.992C363.506 142.44 360.403 144.715 357.714 143.267C355.026 141.819 356.474 140.165 356.06 139.338C355.796 138.809 355.279 138.197 354.724 137.339C354.423 137.822 354.405 138.924 354.405 139.958C354.405 140.992 355.646 144.715 355.439 146.37C355.232 148.024 353.785 149.679 348.2 153.402C342.616 157.124 320.486 158.986 318.831 159.193C317.177 159.399 291.324 160.02 272.296 158.159C253.268 156.297 249.132 151.333 246.857 149.265C244.581 147.197 244.995 142.854 245.822 141.819C246.484 140.992 246.35 138.579 246.2 137.476C246.019 137.874 245.889 138.097 245.822 138.097C245.202 138.097 244.581 139.338 244.375 140.578C244.168 141.819 241.479 144.922 237.963 143.267C234.447 141.613 232.793 135.615 232.379 133.546C231.965 131.478 234.447 130.858 235.068 130.651C235.688 130.444 236.309 129.617 236.516 128.583C236.722 127.549 241.066 120.723 244.582 112.657C248.098 104.591 258.232 96.7318 258.853 96.3182C259.349 95.9872 261.817 94.112 262.989 93.2158C263.609 96.1113 279.121 98.1796 302.699 98.8C321.562 99.2964 333.447 95.284 337.032 93.2158Z" fill="#980808"/>
<path d="M238.602 143.06C237.94 143.06 235.155 139.613 233.845 137.89C233.5 138.234 232.728 139.337 232.397 140.992C231.984 143.06 233.638 145.749 235.086 145.956C236.244 146.121 237.913 144.094 238.602 143.06Z" fill="#F1F1F1"/>
<path d="M362.219 143.06C362.881 143.06 365.666 139.613 366.976 137.89C367.32 138.234 368.093 139.337 368.424 140.992C368.837 143.06 367.183 145.749 365.735 145.956C364.577 146.121 362.908 144.094 362.219 143.06Z" fill="#F1F1F1"/>
<path d="M286.877 122.222C286.992 122.103 287.131 122.007 287.287 121.937C287.442 121.868 287.611 121.828 287.784 121.819C287.957 121.81 288.13 121.832 288.293 121.885C288.456 121.937 288.606 122.018 288.736 122.124L292.937 125.574L291.185 127.382L286.983 123.933C286.854 123.827 286.749 123.699 286.673 123.556C286.598 123.412 286.554 123.257 286.545 123.098C286.535 122.939 286.559 122.78 286.616 122.63C286.673 122.479 286.761 122.341 286.877 122.222Z" fill="white"/>
<path d="M310.117 127.382L308.364 125.573L312.566 122.124C312.826 121.91 313.169 121.8 313.517 121.819C313.866 121.837 314.192 121.982 314.425 122.222C314.657 122.462 314.777 122.777 314.757 123.098C314.737 123.418 314.579 123.719 314.319 123.933L310.117 127.382Z" fill="white"/>
<path d="M311.865 129.626C312.802 133.446 314.085 135.904 313.446 137.315C313.11 138.057 312.421 138.679 311.28 138.679C309.501 138.679 309.501 136.748 307.722 136.748C305.943 136.748 305.943 138.679 304.165 138.679C302.386 138.679 302.386 136.748 300.608 136.748C298.829 136.748 298.829 138.679 297.05 138.679C295.272 138.679 295.272 136.748 293.493 136.748C291.715 136.748 291.715 138.679 289.936 138.679C288.881 138.679 288.284 138.107 287.905 137.445C286.995 135.856 289.116 132.36 289.936 129.276C290.843 125.869 290.767 121.625 290.889 119.066C291.123 114.13 295.24 110.12 300.609 110.12C305.977 110.12 309.938 114.138 310.329 119.066C310.54 121.722 311.007 126.129 311.865 129.626Z" fill="white"/>
<path d="M296.953 119.643C297.548 119.643 298.03 119.199 298.03 118.651C298.03 118.104 297.548 117.66 296.953 117.66C296.358 117.66 295.875 118.104 295.875 118.651C295.875 119.199 296.358 119.643 296.953 119.643Z" fill="#292A2E"/>
<path d="M304.339 119.643C304.934 119.643 305.416 119.199 305.416 118.651C305.416 118.104 304.934 117.66 304.339 117.66C303.744 117.66 303.261 118.104 303.261 118.651C303.261 119.199 303.744 119.643 304.339 119.643Z" fill="#292A2E"/>
<path d="M302.582 121.328C302.644 121.328 302.706 121.34 302.762 121.365C302.818 121.389 302.868 121.425 302.907 121.469C302.946 121.514 302.974 121.566 302.989 121.621C303.004 121.677 303.005 121.735 302.993 121.791C302.762 122.785 301.802 123.41 300.652 123.41C299.503 123.41 298.543 122.785 298.312 121.791C298.3 121.735 298.301 121.677 298.316 121.621C298.331 121.565 298.359 121.514 298.398 121.469C298.437 121.425 298.487 121.389 298.543 121.365C298.6 121.34 298.661 121.328 298.723 121.328H302.582Z" fill="white"/>
<path d="M300.652 123.531C299.413 123.531 298.422 122.842 298.183 121.816C298.166 121.743 298.167 121.667 298.186 121.595C298.205 121.522 298.242 121.454 298.293 121.397C298.345 121.337 298.41 121.29 298.484 121.257C298.559 121.225 298.64 121.208 298.722 121.208H302.581C302.664 121.208 302.745 121.225 302.819 121.257C302.894 121.29 302.959 121.337 303.011 121.397C303.062 121.454 303.098 121.522 303.117 121.595C303.136 121.667 303.137 121.743 303.121 121.816C302.882 122.842 301.89 123.531 300.652 123.531ZM298.722 121.449C298.679 121.449 298.636 121.458 298.597 121.475C298.558 121.492 298.524 121.517 298.497 121.548C298.47 121.578 298.451 121.613 298.441 121.651C298.431 121.688 298.431 121.728 298.44 121.766C298.651 122.677 299.54 123.289 300.651 123.289C301.763 123.289 302.652 122.677 302.864 121.766C302.872 121.728 302.872 121.688 302.862 121.651C302.852 121.613 302.833 121.578 302.806 121.548C302.779 121.517 302.745 121.492 302.706 121.475C302.667 121.458 302.624 121.449 302.581 121.449H298.722Z" fill="#292A2E"/>
<path d="M476.225 183.645C475.894 183.314 476.087 181.439 476.225 180.542C478.086 177.854 465.056 175.579 464.229 178.681C463.402 181.783 458.851 185.713 454.715 187.781C450.578 189.849 449.131 192.952 449.751 195.02C450.372 197.088 452.854 197.502 453.474 197.916C454.094 198.329 469.399 199.157 474.363 197.916C479.327 196.675 480.568 192.952 480.568 191.09C480.568 189.229 476.638 184.058 476.225 183.645Z" fill="#382E35"/>
<path d="M522.208 183.645C522.539 183.314 522.346 181.439 522.208 180.542C520.346 177.854 533.376 175.579 534.204 178.681C535.031 181.783 539.581 185.713 543.718 187.781C547.854 189.849 549.302 192.952 548.681 195.02C548.061 197.088 545.579 197.502 544.959 197.916C544.338 198.329 529.033 199.157 524.069 197.916C519.106 196.675 517.865 192.952 517.865 191.09C517.865 189.229 521.794 184.058 522.208 183.645Z" fill="#382E35"/>
<path d="M474.847 181.943C454 177.807 447.133 158.848 446.306 149.885H551.993C548.692 174.848 529.957 180.467 527.81 181.111L527.794 181.116C525.726 181.736 500.907 187.114 474.847 181.943Z" fill="#F1F1F1"/>
<g clip-path="url(#clip2_1_230)">
<path d="M549.914 61.9852C551.982 92.5952 527.777 97.559 499.449 97.559C471.121 97.559 446.295 93.0089 448.984 61.9852C451.35 34.6845 471.121 20 499.449 20C527.777 20 548.223 36.9595 549.914 61.9852Z" fill="#F1F1F1"/>
<path fill-rule="evenodd" clip-rule="evenodd" d="M454.576 42.1301C456.92 38.5451 462.642 31.2666 468.433 30.7702C475.672 30.1498 487.668 35.734 487.668 50.2117V66.5508H499.248V66.5592H510.83V50.2201C510.83 35.7424 522.826 30.1581 530.065 30.7786C535.856 31.275 541.785 38.752 544.129 42.3369C539.35 32.0429 529.706 25.4476 519.931 22.2917C512.11 19.7665 504.337 19.5182 499.25 19.6101V19.6017C494.163 19.5098 486.39 19.7579 478.568 22.2833C468.793 25.4393 459.355 31.836 454.576 42.1301Z" fill="#3C3135"/>
<path d="M491.805 85.1493C481.381 83.9911 474.225 78.462 471.95 75.8422L527.379 75.4286C522.829 82.6674 504.835 86.5971 491.805 85.1493Z" fill="#DF921C"/>
<path d="M499.459 81.8617C484.237 82.3581 473.951 77.2427 470.711 74.6229C470.711 74.0024 479.604 62.8339 499.459 62.2135C519.314 61.593 528.001 74.6229 527.38 75.2434C526.76 75.8638 518.487 81.2413 499.459 81.8617Z" fill="#FFC921"/>
<ellipse cx="513.812" cy="69.1331" rx="2.48189" ry="1.65459" transform="rotate(36.3995 513.812 69.1331)" fill="#2C2728"/>
<ellipse cx="2.48189" cy="1.65459" rx="2.48189" ry="1.65459" transform="matrix(-0.804899 0.593412 0.593412 0.804899 485.46 66.3285)" fill="#2C2728"/>
<path d="M540.686 56.8544C540.981 63.9063 537.066 69.7969 531.942 70.0114C526.817 70.2259 522.424 64.6831 522.129 57.6312C521.833 50.5794 525.748 44.6888 530.873 44.4742C535.997 44.2597 540.391 49.8025 540.686 56.8544Z" fill="#292826"/>
<path d="M544.018 52.1696C544.313 59.2215 541.35 57.5872 531.754 53.895C524.896 51.2561 519.737 60.6113 519.442 53.5594C519.146 46.5075 526.174 42.7292 531.298 42.5146C536.423 42.3001 543.723 45.1177 544.018 52.1696Z" fill="#F1F1F1"/>
<path d="M458.337 54.3365C456.495 61.1498 459.155 67.7967 464.281 69.1829C469.406 70.569 475.054 66.1694 476.897 59.3561C478.74 52.5429 476.079 45.8959 470.954 44.5098C465.829 43.1237 460.18 47.5232 458.337 54.3365Z" fill="#292826"/>
<path d="M456.001 49C454.158 55.8133 457.507 54.8992 468.001 53.5C475.501 52.5 478.658 62.8133 480.501 56C482.344 49.1867 476.079 43.8861 470.954 42.5C465.829 41.1139 457.844 42.1867 456.001 49Z" fill="#F1F1F1"/>
<path d="M458.337 54.3365C456.495 61.1498 459.155 67.7967 464.281 69.1829C469.406 70.569 475.054 66.1694 476.897 59.3561C478.74 52.5429 476.079 45.8959 470.954 44.5098C465.829 43.1237 460.18 47.5232 458.337 54.3365Z" fill="#292826"/>
<path d="M456.001 49C454.158 55.8133 457.507 54.8992 468.001 53.5C475.501 52.5 478.658 62.8133 480.501 56C482.344 49.1867 476.079 43.8861 470.954 42.5C465.829 41.1139 457.844 42.1867 456.001 49Z" fill="#F1F1F1"/>
<path d="M477.5 64C477.5 65.6569 469.971 71 465 71C460.029 71 455 62.6569 455 61C455 59.3431 458.5 64 465 65C471 65 477.5 62.3432 477.5 64Z" fill="#F1F1F1"/>
<path d="M521 64.3531C521 66.01 528.529 71.3531 533.5 71.3531C538.471 71.3531 543.5 63.0099 543.5 61.3531C543.5 59.6962 540 64.3531 533.5 65.3531C527.5 65.3531 521 62.6962 521 64.3531Z" fill="#F1F1F1"/>
</g>
<path d="M463.678 91.5612L460.783 94.2499C463.058 101.075 481.937 100.455 502.768 100.455C518.486 100.455 530.138 96.9386 535.446 93.8362L534.205 91.5612H463.678Z" fill="#F1F1F1"/>
<path d="M535.699 93.2158C536.94 93.9741 539.422 95.5736 539.422 95.9045C539.422 96.3182 548.936 101.696 551.004 106.246C553.072 110.796 562.38 128.376 562.793 128.583C563.207 128.79 563.414 130.03 564.241 130.444C565.068 130.858 567.136 131.271 567.136 132.926C567.136 134.581 565.068 139.544 563.62 140.992C562.173 142.44 559.07 144.715 556.382 143.267C553.693 141.819 555.141 140.165 554.727 139.338C554.463 138.809 553.946 138.197 553.391 137.339C553.09 137.822 553.072 138.924 553.072 139.958C553.072 140.992 554.313 144.715 554.106 146.37C553.9 148.024 552.452 149.679 546.868 153.402C541.283 157.124 519.153 158.986 517.499 159.193C515.844 159.399 489.991 160.02 470.963 158.159C451.935 156.297 447.799 151.333 445.524 149.265C443.249 147.197 443.662 142.854 444.49 141.819C445.151 140.992 445.017 138.579 444.867 137.476C444.686 137.874 444.556 138.097 444.49 138.097C443.869 138.097 443.249 139.338 443.042 140.578C442.835 141.819 440.146 144.922 436.63 143.267C433.114 141.613 431.46 135.615 431.046 133.546C430.633 131.478 433.114 130.858 433.735 130.651C434.355 130.444 434.976 129.617 435.183 128.583C435.39 127.549 439.733 120.723 443.249 112.657C446.765 104.591 456.899 96.7318 457.52 96.3182C458.016 95.9872 460.484 94.112 461.656 93.2158C462.277 96.1113 477.788 98.1796 501.366 98.8C520.229 99.2964 532.114 95.284 535.699 93.2158Z" fill="#980808"/>
<path d="M437.269 143.06C436.607 143.06 433.822 139.613 432.512 137.89C432.168 138.234 431.395 139.337 431.065 140.992C430.651 143.06 432.305 145.749 433.753 145.956C434.911 146.121 436.58 144.094 437.269 143.06Z" fill="#F1F1F1"/>
<path d="M560.886 143.06C561.548 143.06 564.333 139.613 565.643 137.89C565.988 138.234 566.76 139.337 567.091 140.992C567.504 143.06 565.85 145.749 564.402 145.956C563.244 146.121 561.575 144.094 560.886 143.06Z" fill="#F1F1F1"/>
<path d="M485.877 122.222C485.992 122.103 486.131 122.007 486.287 121.937C486.442 121.868 486.611 121.828 486.784 121.819C486.957 121.81 487.13 121.832 487.293 121.885C487.456 121.937 487.606 122.018 487.736 122.124L491.937 125.574L490.185 127.382L485.983 123.933C485.854 123.827 485.749 123.699 485.673 123.556C485.598 123.412 485.554 123.257 485.545 123.098C485.535 122.939 485.559 122.78 485.616 122.63C485.673 122.479 485.761 122.341 485.877 122.222Z" fill="white"/>
<path d="M509.117 127.382L507.364 125.573L511.566 122.124C511.826 121.91 512.169 121.8 512.517 121.819C512.866 121.837 513.192 121.982 513.425 122.222C513.657 122.462 513.777 122.777 513.757 123.098C513.737 123.418 513.579 123.719 513.319 123.933L509.117 127.382Z" fill="white"/>
<path d="M510.865 129.626C511.802 133.446 513.085 135.904 512.446 137.315C512.11 138.057 511.421 138.679 510.28 138.679C508.501 138.679 508.501 136.748 506.722 136.748C504.943 136.748 504.943 138.679 503.165 138.679C501.386 138.679 501.386 136.748 499.608 136.748C497.829 136.748 497.829 138.679 496.05 138.679C494.272 138.679 494.272 136.748 492.493 136.748C490.715 136.748 490.715 138.679 488.936 138.679C487.881 138.679 487.284 138.107 486.905 137.445C485.995 135.856 488.116 132.36 488.936 129.276C489.843 125.869 489.767 121.625 489.889 119.066C490.123 114.13 494.24 110.12 499.609 110.12C504.977 110.12 508.938 114.138 509.329 119.066C509.54 121.722 510.007 126.129 510.865 129.626Z" fill="white"/>
<path d="M495.953 119.643C496.548 119.643 497.03 119.199 497.03 118.651C497.03 118.104 496.548 117.66 495.953 117.66C495.358 117.66 494.875 118.104 494.875 118.651C494.875 119.199 495.358 119.643 495.953 119.643Z" fill="#292A2E"/>
<path d="M503.339 119.643C503.934 119.643 504.416 119.199 504.416 118.651C504.416 118.104 503.934 117.66 503.339 117.66C502.744 117.66 502.261 118.104 502.261 118.651C502.261 119.199 502.744 119.643 503.339 119.643Z" fill="#292A2E"/>
<path d="M501.582 121.328C501.644 121.328 501.706 121.34 501.762 121.365C501.818 121.389 501.868 121.425 501.907 121.469C501.946 121.514 501.974 121.566 501.989 121.621C502.004 121.677 502.005 121.735 501.993 121.791C501.762 122.785 500.802 123.41 499.653 123.41C498.503 123.41 497.543 122.785 497.312 121.791C497.3 121.735 497.301 121.677 497.316 121.621C497.331 121.565 497.359 121.514 497.398 121.469C497.438 121.425 497.487 121.389 497.543 121.365C497.6 121.34 497.661 121.328 497.723 121.328H501.582Z" fill="white"/>
<path d="M499.652 123.531C498.414 123.531 497.422 122.842 497.183 121.816C497.166 121.743 497.167 121.667 497.186 121.595C497.205 121.522 497.242 121.454 497.293 121.397C497.345 121.337 497.41 121.29 497.484 121.257C497.559 121.225 497.64 121.208 497.722 121.208H501.581C501.664 121.208 501.745 121.225 501.819 121.257C501.894 121.29 501.959 121.337 502.011 121.397C502.062 121.454 502.098 121.522 502.117 121.595C502.136 121.667 502.138 121.743 502.121 121.816C501.882 122.842 500.89 123.531 499.652 123.531ZM497.722 121.449C497.679 121.449 497.636 121.458 497.597 121.475C497.558 121.492 497.524 121.517 497.497 121.548C497.47 121.578 497.451 121.613 497.441 121.651C497.431 121.688 497.431 121.728 497.44 121.766C497.651 122.677 498.54 123.289 499.652 123.289C500.763 123.289 501.652 122.677 501.864 121.766C501.872 121.728 501.872 121.688 501.862 121.651C501.852 121.613 501.833 121.578 501.806 121.548C501.779 121.517 501.745 121.492 501.706 121.475C501.667 121.458 501.624 121.449 501.581 121.449H497.722Z" fill="#292A2E"/>
<path d="M677.558 183.645C677.227 183.314 677.42 181.439 677.558 180.542C679.419 177.854 666.389 175.579 665.562 178.681C664.735 181.783 660.184 185.713 656.048 187.781C651.911 189.849 650.463 192.952 651.084 195.02C651.704 197.088 654.186 197.502 654.807 197.916C655.427 198.329 670.732 199.157 675.696 197.916C680.66 196.675 681.901 192.952 681.901 191.09C681.901 189.229 677.971 184.058 677.558 183.645Z" fill="#382E35"/>
<path d="M723.541 183.645C723.872 183.314 723.678 181.439 723.541 180.542C721.679 177.854 734.709 175.579 735.536 178.681C736.364 181.783 740.914 185.713 745.05 187.781C749.187 189.849 750.635 192.952 750.014 195.02C749.394 197.088 746.912 197.502 746.291 197.916C745.671 198.329 730.366 199.157 725.402 197.916C720.438 196.675 719.197 192.952 719.197 191.09C719.197 189.229 723.127 184.058 723.541 183.645Z" fill="#382E35"/>
<path d="M676.18 181.943C655.332 177.807 648.466 158.848 647.639 149.885H753.326C750.025 174.848 731.29 180.467 729.143 181.111L729.127 181.116C727.059 181.736 702.24 187.114 676.18 181.943Z" fill="#F1F1F1"/>
<g clip-path="url(#clip3_1_230)">
<path d="M751.247 61.9852C753.315 92.5952 729.11 97.559 700.782 97.559C672.454 97.559 647.628 93.0089 650.317 61.9852C652.683 34.6845 672.454 20 700.782 20C729.11 20 749.556 36.9595 751.247 61.9852Z" fill="#F1F1F1"/>
<path fill-rule="evenodd" clip-rule="evenodd" d="M655.909 42.1301C658.253 38.5451 663.975 31.2666 669.766 30.7702C677.005 30.1498 689.001 35.734 689.001 50.2117V66.5508H700.581V66.5592H712.163V50.2201C712.163 35.7424 724.159 30.1581 731.398 30.7786C737.189 31.275 743.118 38.752 745.462 42.3369C740.682 32.0429 731.038 25.4476 721.263 22.2917C713.442 19.7665 705.67 19.5182 700.583 19.6101V19.6017C695.496 19.5098 687.722 19.7579 679.9 22.2833C670.125 25.4393 660.688 31.836 655.909 42.1301Z" fill="#3C3135"/>
<path d="M693.138 85.1493C682.714 83.9911 675.558 78.462 673.283 75.8422L728.712 75.4286C724.161 82.6674 706.168 86.5971 693.138 85.1493Z" fill="#DF921C"/>
<path d="M700.792 81.8617C685.57 82.3581 675.284 77.2427 672.043 74.6229C672.043 74.0024 680.937 62.8339 700.792 62.2135C720.647 61.593 729.334 74.6229 728.713 75.2434C728.093 75.8638 719.82 81.2413 700.792 81.8617Z" fill="#FFC921"/>
<ellipse cx="715.145" cy="69.1331" rx="2.48189" ry="1.65459" transform="rotate(36.3995 715.145 69.1331)" fill="#2C2728"/>
<ellipse cx="2.48189" cy="1.65459" rx="2.48189" ry="1.65459" transform="matrix(-0.804899 0.593412 0.593412 0.804899 686.793 66.3285)" fill="#2C2728"/>
<path d="M659.67 54.3365C657.827 61.1498 660.488 67.7967 665.613 69.1829C670.738 70.569 676.387 66.1694 678.23 59.3561C680.072 52.5429 677.411 45.8959 672.286 44.5098C667.161 43.1237 661.513 47.5232 659.67 54.3365Z" fill="#292826"/>
<path d="M655.334 51.5C653.491 58.3133 656.834 58 668.334 57C675.872 56.3445 679.991 62.8133 681.834 56C683.676 49.1867 677.411 43.8861 672.286 42.5C667.161 41.1139 657.176 44.6867 655.334 51.5Z" fill="#F1F1F1"/>
<path d="M678.334 66C678.334 67.6568 671.304 70.9817 666.334 70.9817C661.363 70.9817 654.834 67.6568 654.834 66C654.834 64.3431 656.334 62 666.334 62.5C677.334 63.05 678.334 64.3431 678.334 66Z" fill="#F1F1F1"/>
<path d="M742.249 54.4956C744.091 61.3089 741.431 67.9558 736.305 69.342C731.18 70.7281 725.532 66.3285 723.689 59.5152C721.846 52.702 724.507 46.055 729.632 44.6689C734.757 43.2828 740.406 47.6823 742.249 54.4956Z" fill="#292826"/>
<path d="M746.585 51.6591C748.428 58.4724 745.085 58.1591 733.585 57.1591C726.047 56.5036 721.928 62.9724 720.085 56.1591C718.242 49.3458 724.507 44.0452 729.632 42.6591C734.757 41.273 744.742 44.8458 746.585 51.6591Z" fill="#F1F1F1"/>
<path d="M723.585 66.1591C723.585 67.816 730.615 71.1408 735.585 71.1408C740.556 71.1408 747.085 67.816 747.085 66.1591C747.085 64.5022 745.585 62.1591 735.585 62.6591C724.585 63.2091 723.585 64.5022 723.585 66.1591Z" fill="#F1F1F1"/>
</g>
<path d="M665.011 91.5612L662.115 94.2499C664.39 101.075 683.27 100.455 704.101 100.455C719.819 100.455 731.47 96.9386 736.779 93.8362L735.538 91.5612H665.011Z" fill="#F1F1F1"/>
<path d="M737.032 93.2158C738.273 93.9741 740.755 95.5736 740.755 95.9045C740.755 96.3182 750.269 101.696 752.337 106.246C754.405 110.796 763.712 128.376 764.126 128.583C764.54 128.79 764.746 130.03 765.574 130.444C766.401 130.858 768.469 131.271 768.469 132.926C768.469 134.581 766.401 139.544 764.953 140.992C763.506 142.44 760.403 144.715 757.714 143.267C755.026 141.819 756.474 140.165 756.06 139.338C755.796 138.809 755.279 138.197 754.724 137.339C754.423 137.822 754.405 138.924 754.405 139.958C754.405 140.992 755.646 144.715 755.439 146.37C755.232 148.024 753.785 149.679 748.2 153.402C742.616 157.124 720.486 158.986 718.831 159.193C717.177 159.399 691.324 160.02 672.296 158.159C653.268 156.297 649.132 151.333 646.857 149.265C644.581 147.197 644.995 142.854 645.822 141.819C646.484 140.992 646.35 138.579 646.2 137.476C646.019 137.874 645.889 138.097 645.822 138.097C645.202 138.097 644.581 139.338 644.375 140.578C644.168 141.819 641.479 144.922 637.963 143.267C634.447 141.613 632.793 135.615 632.379 133.546C631.965 131.478 634.447 130.858 635.068 130.651C635.688 130.444 636.309 129.617 636.516 128.583C636.722 127.549 641.066 120.723 644.582 112.657C648.098 104.591 658.232 96.7318 658.853 96.3182C659.349 95.9872 661.817 94.112 662.989 93.2158C663.609 96.1113 679.121 98.1796 702.699 98.8C721.562 99.2964 733.447 95.284 737.032 93.2158Z" fill="#980808"/>
<path d="M638.602 143.06C637.94 143.06 635.155 139.613 633.845 137.89C633.5 138.234 632.728 139.337 632.397 140.992C631.984 143.06 633.638 145.749 635.086 145.956C636.244 146.121 637.913 144.094 638.602 143.06Z" fill="#F1F1F1"/>
<path d="M762.219 143.06C762.881 143.06 765.666 139.613 766.976 137.89C767.32 138.234 768.093 139.337 768.423 140.992C768.837 143.06 767.183 145.749 765.735 145.956C764.577 146.121 762.908 144.094 762.219 143.06Z" fill="#F1F1F1"/>
<path d="M686.877 122.222C686.992 122.103 687.131 122.007 687.287 121.937C687.442 121.868 687.611 121.828 687.784 121.819C687.957 121.81 688.13 121.832 688.293 121.885C688.456 121.937 688.606 122.018 688.736 122.124L692.937 125.574L691.185 127.382L686.983 123.933C686.854 123.827 686.749 123.699 686.673 123.556C686.598 123.412 686.554 123.257 686.545 123.098C686.535 122.939 686.559 122.78 686.616 122.63C686.673 122.479 686.761 122.341 686.877 122.222Z" fill="white"/>
<path d="M710.117 127.382L708.364 125.573L712.566 122.124C712.826 121.91 713.169 121.8 713.517 121.819C713.866 121.837 714.192 121.982 714.425 122.222C714.657 122.462 714.777 122.777 714.757 123.098C714.737 123.418 714.579 123.719 714.319 123.933L710.117 127.382Z" fill="white"/>
<path d="M711.865 129.626C712.802 133.446 714.085 135.904 713.446 137.315C713.11 138.057 712.421 138.679 711.28 138.679C709.501 138.679 709.501 136.748 707.722 136.748C705.943 136.748 705.943 138.679 704.165 138.679C702.386 138.679 702.386 136.748 700.608 136.748C698.829 136.748 698.829 138.679 697.05 138.679C695.272 138.679 695.272 136.748 693.493 136.748C691.715 136.748 691.715 138.679 689.936 138.679C688.881 138.679 688.284 138.107 687.905 137.445C686.995 135.856 689.116 132.36 689.936 129.276C690.843 125.869 690.767 121.625 690.889 119.066C691.123 114.13 695.24 110.12 700.609 110.12C705.977 110.12 709.938 114.138 710.329 119.066C710.54 121.722 711.007 126.129 711.865 129.626Z" fill="white"/>
<path d="M696.953 119.643C697.548 119.643 698.03 119.199 698.03 118.651C698.03 118.104 697.548 117.66 696.953 117.66C696.358 117.66 695.875 118.104 695.875 118.651C695.875 119.199 696.358 119.643 696.953 119.643Z" fill="#292A2E"/>
<path d="M704.339 119.643C704.934 119.643 705.416 119.199 705.416 118.651C705.416 118.104 704.934 117.66 704.339 117.66C703.744 117.66 703.261 118.104 703.261 118.651C703.261 119.199 703.744 119.643 704.339 119.643Z" fill="#292A2E"/>
<path d="M702.582 121.328C702.644 121.328 702.706 121.34 702.762 121.365C702.818 121.389 702.868 121.425 702.907 121.469C702.946 121.514 702.974 121.566 702.989 121.621C703.004 121.677 703.005 121.735 702.993 121.791C702.762 122.785 701.802 123.41 700.653 123.41C699.503 123.41 698.543 122.785 698.312 121.791C698.3 121.735 698.301 121.677 698.316 121.621C698.331 121.565 698.359 121.514 698.398 121.469C698.438 121.425 698.487 121.389 698.543 121.365C698.6 121.34 698.661 121.328 698.723 121.328H702.582Z" fill="white"/>
<path d="M700.652 123.531C699.414 123.531 698.422 122.842 698.183 121.816C698.166 121.743 698.167 121.667 698.186 121.595C698.205 121.522 698.242 121.454 698.293 121.397C698.345 121.337 698.41 121.29 698.484 121.257C698.559 121.225 698.64 121.208 698.722 121.208H702.581C702.664 121.208 702.745 121.225 702.819 121.257C702.894 121.29 702.959 121.337 703.011 121.397C703.062 121.454 703.098 121.522 703.117 121.595C703.136 121.667 703.138 121.743 703.121 121.816C702.882 122.842 701.89 123.531 700.652 123.531ZM698.722 121.449C698.679 121.449 698.636 121.458 698.597 121.475C698.558 121.492 698.524 121.517 698.497 121.548C698.47 121.578 698.451 121.613 698.441 121.651C698.431 121.688 698.431 121.728 698.44 121.766C698.651 122.677 699.54 123.289 700.652 123.289C701.763 123.289 702.652 122.677 702.864 121.766C702.872 121.728 702.872 121.688 702.862 121.651C702.852 121.613 702.833 121.578 702.806 121.548C702.779 121.517 702.745 121.492 702.706 121.475C702.667 121.458 702.624 121.449 702.581 121.449H698.722Z" fill="#292A2E"/>
<path d="M876.225 183.645C875.894 183.314 876.087 181.439 876.225 180.542C878.086 177.854 865.056 175.579 864.229 178.681C863.402 181.783 858.851 185.713 854.715 187.781C850.578 189.849 849.131 192.952 849.751 195.02C850.372 197.088 852.854 197.502 853.474 197.916C854.094 198.329 869.399 199.157 874.363 197.916C879.327 196.675 880.568 192.952 880.568 191.09C880.568 189.229 876.638 184.058 876.225 183.645Z" fill="#382E35"/>
<path d="M922.208 183.645C922.539 183.314 922.346 181.439 922.208 180.542C920.346 177.854 933.376 175.579 934.204 178.681C935.031 181.783 939.581 185.713 943.718 187.781C947.854 189.849 949.302 192.952 948.681 195.02C948.061 197.088 945.579 197.502 944.959 197.916C944.338 198.329 929.033 199.157 924.069 197.916C919.106 196.675 917.865 192.952 917.865 191.09C917.865 189.229 921.794 184.058 922.208 183.645Z" fill="#382E35"/>
<path d="M874.847 181.943C854 177.807 847.133 158.848 846.306 149.885H951.993C948.692 174.848 929.957 180.467 927.81 181.111L927.794 181.116C925.726 181.736 900.907 187.114 874.847 181.943Z" fill="#F1F1F1"/>
<g clip-path="url(#clip4_1_230)">
<path d="M949.914 61.9852C951.982 92.5952 927.777 97.559 899.449 97.559C871.121 97.559 846.295 93.0089 848.984 61.9852C851.35 34.6845 871.121 20 899.449 20C927.777 20 948.223 36.9595 949.914 61.9852Z" fill="#F1F1F1"/>
<path fill-rule="evenodd" clip-rule="evenodd" d="M854.576 42.1301C856.92 38.5451 862.642 31.2666 868.433 30.7702C875.672 30.1498 887.668 35.734 887.668 50.2117V66.5508H899.248V66.5592H910.83V50.2201C910.83 35.7424 922.826 30.1581 930.065 30.7786C935.856 31.275 941.785 38.752 944.129 42.3369C939.35 32.0429 929.706 25.4476 919.931 22.2917C912.109 19.7665 904.337 19.5182 899.25 19.6101V19.6017C894.163 19.5098 886.39 19.7579 878.568 22.2833C868.793 25.4393 859.355 31.836 854.576 42.1301Z" fill="#3C3135"/>
<path d="M891.805 85.1493C881.381 83.9911 874.225 78.462 871.95 75.8422L927.379 75.4286C922.829 82.6674 904.835 86.5971 891.805 85.1493Z" fill="#DF921C"/>
<path d="M899.459 81.8617C884.237 82.3581 873.951 77.2427 870.711 74.6229C870.711 74.0024 879.604 62.8339 899.459 62.2135C919.314 61.593 928.001 74.6229 927.38 75.2434C926.76 75.8638 918.487 81.2413 899.459 81.8617Z" fill="#FFC921"/>
<ellipse cx="913.812" cy="69.1331" rx="2.48189" ry="1.65459" transform="rotate(36.3995 913.812 69.1331)" fill="#2C2728"/>
<ellipse cx="2.48189" cy="1.65459" rx="2.48189" ry="1.65459" transform="matrix(-0.804899 0.593412 0.593412 0.804899 885.46 66.3285)" fill="#2C2728"/>
<path d="M858.337 54.3365C856.495 61.1498 859.155 67.7967 864.281 69.1829C869.406 70.569 875.054 66.1694 876.897 59.3561C878.74 52.5429 876.079 45.8959 870.954 44.5098C865.829 43.1237 860.18 47.5232 858.337 54.3365Z" fill="#292826"/>
<path d="M852.501 58C850.658 64.8133 855.501 60.3561 867.001 59.3561C874.539 58.7007 879.158 66.1694 881.001 59.3561C882.844 52.5429 876.079 43.8861 870.954 42.5C865.829 41.1139 854.344 51.1867 852.501 58Z" fill="#F1F1F1"/>
<path d="M877.001 64.5C877.001 66.1569 869.971 70.9817 865.001 70.9817C860.03 70.9817 853.501 67.6569 853.501 66C853.501 64.3432 855.001 60.5 865.001 61C876.001 61.55 877.001 62.8432 877.001 64.5Z" fill="#F1F1F1"/>
<path d="M940.228 54.4306C942.07 61.2439 939.409 67.8908 934.284 69.2769C929.159 70.6631 923.511 66.2635 921.668 59.4502C919.825 52.6369 922.486 45.99 927.611 44.6039C932.736 43.2177 938.385 47.6173 940.228 54.4306Z" fill="#292826"/>
<path d="M946.064 58.0941C947.907 64.9073 943.064 60.4502 931.564 59.4502C924.026 58.7947 919.407 66.2635 917.564 59.4502C915.721 52.6369 922.486 43.9802 927.611 42.5941C932.736 41.2079 944.221 51.2808 946.064 58.0941Z" fill="#F1F1F1"/>
<path d="M921.564 64.5941C921.564 66.2509 928.594 71.0757 933.564 71.0757C938.535 71.0757 945.064 67.7509 945.064 66.0941C945.064 64.4372 943.564 60.5941 933.564 61.0941C922.564 61.6441 921.564 62.9372 921.564 64.5941Z" fill="#F1F1F1"/>
</g>
<path d="M863.678 91.5612L860.783 94.2499C863.058 101.075 881.937 100.455 902.768 100.455C918.486 100.455 930.138 96.9386 935.446 93.8362L934.205 91.5612H863.678Z" fill="#F1F1F1"/>
<path d="M935.699 93.2158C936.94 93.9741 939.422 95.5736 939.422 95.9045C939.422 96.3182 948.936 101.696 951.004 106.246C953.072 110.796 962.38 128.376 962.793 128.583C963.207 128.79 963.414 130.03 964.241 130.444C965.068 130.858 967.136 131.271 967.136 132.926C967.136 134.581 965.068 139.544 963.62 140.992C962.173 142.44 959.07 144.715 956.382 143.267C953.693 141.819 955.141 140.165 954.727 139.338C954.463 138.809 953.946 138.197 953.391 137.339C953.09 137.822 953.072 138.924 953.072 139.958C953.072 140.992 954.313 144.715 954.106 146.37C953.9 148.024 952.452 149.679 946.868 153.402C941.283 157.124 919.153 158.986 917.499 159.193C915.844 159.399 889.991 160.02 870.963 158.159C851.935 156.297 847.799 151.333 845.524 149.265C843.249 147.197 843.662 142.854 844.49 141.819C845.151 140.992 845.017 138.579 844.867 137.476C844.686 137.874 844.556 138.097 844.49 138.097C843.869 138.097 843.249 139.338 843.042 140.578C842.835 141.819 840.146 144.922 836.63 143.267C833.114 141.613 831.46 135.615 831.046 133.546C830.633 131.478 833.114 130.858 833.735 130.651C834.355 130.444 834.976 129.617 835.183 128.583C835.39 127.549 839.733 120.723 843.249 112.657C846.765 104.591 856.899 96.7318 857.52 96.3182C858.016 95.9872 860.484 94.112 861.656 93.2158C862.277 96.1113 877.788 98.1796 901.366 98.8C920.229 99.2964 932.114 95.284 935.699 93.2158Z" fill="#980808"/>
<path d="M837.269 143.06C836.607 143.06 833.822 139.613 832.512 137.89C832.168 138.234 831.395 139.337 831.065 140.992C830.651 143.06 832.305 145.749 833.753 145.956C834.911 146.121 836.58 144.094 837.269 143.06Z" fill="#F1F1F1"/>
<path d="M960.886 143.06C961.548 143.06 964.333 139.613 965.643 137.89C965.988 138.234 966.76 139.337 967.091 140.992C967.504 143.06 965.85 145.749 964.402 145.956C963.244 146.121 961.575 144.094 960.886 143.06Z" fill="#F1F1F1"/>
<path d="M885.877 122.222C885.992 122.103 886.131 122.007 886.287 121.937C886.442 121.868 886.611 121.828 886.784 121.819C886.957 121.81 887.13 121.832 887.293 121.885C887.456 121.937 887.606 122.018 887.736 122.124L891.937 125.574L890.185 127.382L885.983 123.933C885.854 123.827 885.749 123.699 885.673 123.556C885.598 123.412 885.554 123.257 885.545 123.098C885.535 122.939 885.559 122.78 885.616 122.63C885.673 122.479 885.761 122.341 885.877 122.222Z" fill="white"/>
<path d="M909.117 127.382L907.364 125.573L911.566 122.124C911.826 121.91 912.169 121.8 912.517 121.819C912.866 121.837 913.192 121.982 913.425 122.222C913.657 122.462 913.777 122.777 913.757 123.098C913.737 123.418 913.579 123.719 913.319 123.933L909.117 127.382Z" fill="white"/>
<path d="M910.865 129.626C911.802 133.446 913.085 135.904 912.446 137.315C912.11 138.057 911.421 138.679 910.28 138.679C908.501 138.679 908.501 136.748 906.722 136.748C904.943 136.748 904.943 138.679 903.165 138.679C901.386 138.679 901.386 136.748 899.608 136.748C897.829 136.748 897.829 138.679 896.05 138.679C894.272 138.679 894.272 136.748 892.493 136.748C890.715 136.748 890.715 138.679 888.936 138.679C887.881 138.679 887.284 138.107 886.905 137.445C885.995 135.856 888.116 132.36 888.936 129.276C889.843 125.869 889.767 121.625 889.889 119.066C890.123 114.13 894.24 110.12 899.609 110.12C904.977 110.12 908.938 114.138 909.329 119.066C909.54 121.722 910.007 126.129 910.865 129.626Z" fill="white"/>
<path d="M895.953 119.643C896.548 119.643 897.03 119.199 897.03 118.651C897.03 118.104 896.548 117.66 895.953 117.66C895.358 117.66 894.875 118.104 894.875 118.651C894.875 119.199 895.358 119.643 895.953 119.643Z" fill="#292A2E"/>
<path d="M903.339 119.643C903.934 119.643 904.416 119.199 904.416 118.651C904.416 118.104 903.934 117.66 903.339 117.66C902.744 117.66 902.261 118.104 902.261 118.651C902.261 119.199 902.744 119.643 903.339 119.643Z" fill="#292A2E"/>
<path d="M901.582 121.328C901.644 121.328 901.706 121.34 901.762 121.365C901.818 121.389 901.868 121.425 901.907 121.469C901.946 121.514 901.974 121.566 901.989 121.621C902.004 121.677 902.005 121.735 901.993 121.791C901.762 122.785 900.802 123.41 899.653 123.41C898.503 123.41 897.543 122.785 897.312 121.791C897.3 121.735 897.301 121.677 897.316 121.621C897.331 121.565 897.359 121.514 897.398 121.469C897.438 121.425 897.487 121.389 897.543 121.365C897.6 121.34 897.661 121.328 897.723 121.328H901.582Z" fill="white"/>
<path d="M899.652 123.531C898.414 123.531 897.422 122.842 897.183 121.816C897.166 121.743 897.167 121.667 897.186 121.595C897.205 121.522 897.242 121.454 897.293 121.397C897.345 121.337 897.41 121.29 897.484 121.257C897.559 121.225 897.64 121.208 897.722 121.208H901.581C901.664 121.208 901.745 121.225 901.819 121.257C901.894 121.29 901.959 121.337 902.011 121.397C902.062 121.454 902.098 121.522 902.117 121.595C902.136 121.667 902.137 121.743 902.121 121.816C901.882 122.842 900.89 123.531 899.652 123.531ZM897.722 121.449C897.679 121.449 897.636 121.458 897.597 121.475C897.558 121.492 897.524 121.517 897.497 121.548C897.47 121.578 897.451 121.613 897.441 121.651C897.431 121.688 897.431 121.728 897.44 121.766C897.651 122.677 898.54 123.289 899.652 123.289C900.763 123.289 901.652 122.677 901.864 121.766C901.872 121.728 901.872 121.688 901.862 121.651C901.852 121.613 901.833 121.578 901.806 121.548C901.779 121.517 901.745 121.492 901.706 121.475C901.667 121.458 901.624 121.449 901.581 121.449H897.722Z" fill="#292A2E"/>
<defs>
<clipPath id="clip0_1_230">
<rect width="101.254" height="77.559" fill="white" transform="translate(50.1179 20)"/>
</clipPath>
<clipPath id="clip1_1_230">
<rect width="101.254" height="77.559" fill="white" transform="translate(250.118 20)"/>
</clipPath>
<clipPath id="clip2_1_230">
<rect width="101.254" height="77.559" fill="white" transform="translate(448.785 20)"/>
</clipPath>
<clipPath id="clip3_1_230">
<rect width="101.254" height="77.559" fill="white" transform="translate(650.118 20)"/>
</clipPath>
<clipPath id="clip4_1_230">
<rect width="101.254" height="77.559" fill="white" transform="translate(848.785 20)"/>
</clipPath>
</defs>
</svg>
