<svg width="1000" height="220" viewBox="0 0 1000 220" fill="none" xmlns="http://www.w3.org/2000/svg">
<path d="M77.5576 183.645C77.2267 183.314 77.4197 181.439 77.5576 180.542C79.4192 177.854 66.3891 175.579 65.5618 178.681C64.7345 181.783 60.1842 185.713 56.0478 187.781C51.9113 189.849 50.4635 192.952 51.084 195.02C51.7045 197.088 54.1864 197.502 54.8068 197.916C55.4273 198.329 70.7323 199.157 75.6961 197.916C80.6598 196.675 81.9008 192.952 81.9008 191.09C81.9008 189.229 77.9713 184.058 77.5576 183.645Z" fill="#382E35"/>
<path d="M123.541 183.645C123.872 183.314 123.678 181.439 123.541 180.542C121.679 177.854 134.709 175.579 135.536 178.681C136.364 181.783 140.914 185.713 145.05 187.781C149.187 189.849 150.635 192.952 150.014 195.02C149.394 197.088 146.912 197.502 146.291 197.916C145.671 198.329 130.366 199.157 125.402 197.916C120.438 196.675 119.197 192.952 119.197 191.09C119.197 189.229 123.127 184.058 123.541 183.645Z" fill="#382E35"/>
<path d="M76.1803 181.943C55.3324 177.807 48.4658 158.848 47.6385 149.885H153.326C150.025 174.848 131.29 180.467 129.143 181.111L129.127 181.116C127.059 181.736 102.24 187.114 76.1803 181.943Z" fill="#F1F1F1"/>
<g clip-path="url(#clip0_1_230)">
<path d="M151.247 61.9852C153.315 92.5952 129.11 97.559 100.782 97.559C72.4537 97.559 47.6279 93.0089 50.3166 61.9852C52.6826 34.6845 72.4537 20 100.782 20C129.11 20 149.556 36.9595 151.247 61.9852Z" fill="#F1F1F1"/>
<path fill-rule="evenodd" clip-rule="evenodd" d="M55.9088 42.1301C58.2528 38.5451 63.9749 31.2666 69.766 30.7702C77.0048 30.1498 89.0006 35.734 89.0006 50.2117V66.5508H100.581V66.5592H112.163V50.2201C112.163 35.7424 124.159 30.1581 131.398 30.7786C137.189 31.275 143.118 38.752 145.462 42.3369C140.682 32.0429 131.038 25.4476 121.263 22.2917C113.442 19.7665 105.67 19.5182 100.583 19.6101V19.6017C95.4957 19.5098 87.7223 19.7579 79.9003 22.2833C70.1254 25.4393 60.6881 31.836 55.9088 42.1301Z" fill="#3C3135"/>
<path d="M93.1378 85.1493C82.7139 83.9911 75.5578 78.462 73.2827 75.8422L128.712 75.4286C124.161 82.6674 106.168 86.5971 93.1378 85.1493Z" fill="#DF921C"/>
<path d="M100.792 81.8617C85.5697 82.3581 75.2836 77.2427 72.0434 74.6229C72.0434 74.0024 80.9368 62.8339 100.792 62.2135C120.647 61.593 129.334 74.6229 128.713 75.2434C128.093 75.8638 119.82 81.2413 100.792 81.8617Z" fill="#FFC921"/>
<ellipse cx="115.145" cy="69.1331" rx="2.48189" ry="1.65459" transform="rotate(36.3995 115.145 69.1331)" fill="#2C2728"/>
<ellipse cx="2.48189" cy="1.65459" rx="2.48189" ry="1.65459" transform="matrix(-0.804899 0.593412 0.593412 0.804899 86.7929 66.3285)" fill="#2C2728"/>
<path d="M143.644 53.992C145.486 60.8052 142.825 67.4522 137.7 68.8383C132.575 70.2244 126.927 65.8249 125.084 59.0116C123.241 52.1983 125.902 45.5514 131.027 44.1652C136.152 42.7791 141.801 47.1787 143.644 53.992Z" fill="#292826"/>
<ellipse cx="9.61312" cy="12.7798" rx="9.61312" ry="12.7798" transform="matrix(-0.965317 -0.261082 -0.261082 0.965317 79.42 46.5292)" fill="#292826"/>
</g>
<path d="M65.0109 91.5612L62.1154 94.2499C64.3904 101.075 83.2699 100.455 104.101 100.455C119.819 100.455 131.47 96.9386 136.779 93.8362L135.538 91.5612H65.0109Z" fill="#F1F1F1"/>
<path d="M137.032 93.2158C138.273 93.9741 140.755 95.5736 140.755 95.9045C140.755 96.3182 150.269 101.696 152.337 106.246C154.405 110.796 163.712 128.376 164.126 128.583C164.54 128.79 164.746 130.03 165.574 130.444C166.401 130.858 168.469 131.271 168.469 132.926C168.469 134.581 166.401 139.544 164.953 140.992C163.506 142.44 160.403 144.715 157.714 143.267C155.026 141.819 156.474 140.165 156.06 139.338C155.796 138.809 155.279 138.197 154.724 137.339C154.423 137.822 154.405 138.924 154.405 139.958C154.405 140.992 155.646 144.715 155.439 146.37C155.232 148.024 153.785 149.679 148.2 153.402C142.616 157.124 120.486 158.986 118.831 159.193C117.177 159.399 91.3237 160.02 72.2959 158.159C53.2681 156.297 49.1316 151.333 46.8566 149.265C44.5815 147.197 44.9951 142.854 45.8224 141.819C46.4843 140.992 46.3497 138.579 46.1996 137.476C46.0192 137.874 45.8889 138.097 45.8224 138.097C45.202 138.097 44.5815 139.338 44.3747 140.578C44.1678 141.819 41.4791 144.922 37.9631 143.267C34.4471 141.613 32.7927 135.615 32.3791 133.546C31.9654 131.478 34.4473 130.858 35.0678 130.651C35.6882 130.444 36.3087 129.617 36.5155 128.583C36.7224 127.549 41.0657 120.723 44.5817 112.657C48.0977 104.591 58.2321 96.7318 58.8525 96.3182C59.3489 95.9872 61.817 94.112 62.989 93.2158C63.6095 96.1113 79.1213 98.1796 102.699 98.8C121.562 99.2964 133.447 95.284 137.032 93.2158Z" fill="#980808"/>
<path d="M38.6021 143.06C37.9402 143.06 35.155 139.613 33.8451 137.89C33.5004 138.234 32.7283 139.337 32.3974 140.992C31.9837 143.06 33.6383 145.749 35.0861 145.956C36.2443 146.121 37.9127 144.094 38.6021 143.06Z" fill="#F1F1F1"/>
<path d="M162.219 143.06C162.881 143.06 165.666 139.613 166.976 137.89C167.32 138.234 168.093 139.337 168.424 140.992C168.837 143.06 167.183 145.749 165.735 145.956C164.577 146.121 162.908 144.094 162.219 143.06Z" fill="#F1F1F1"/>
<path d="M90.251 125.222C90.3278 125.103 90.4207 125.007 90.5245 124.937C90.6283 124.868 90.741 124.828 90.856 124.819C90.9711 124.81 91.0864 124.832 91.1952 124.885C91.304 124.937 91.4043 125.018 91.4904 125.124L94.2916 128.574L93.123 130.382L90.3218 126.933C90.2358 126.827 90.1657 126.699 90.1156 126.556C90.0655 126.412 90.0363 126.257 90.0297 126.098C90.0232 125.939 90.0393 125.78 90.0773 125.63C90.1153 125.479 90.1743 125.341 90.251 125.222Z" fill="white"/>
<path d="M105.745 130.382L104.576 128.573L107.377 125.124C107.551 124.91 107.779 124.8 108.012 124.819C108.244 124.837 108.462 124.982 108.617 125.222C108.772 125.462 108.851 125.777 108.838 126.098C108.825 126.418 108.719 126.719 108.546 126.933L105.745 130.382Z" fill="white"/>
<path d="M106.91 132.626C107.535 136.446 108.39 138.904 107.964 140.315C107.74 141.057 107.281 141.679 106.52 141.679C105.334 141.679 105.334 139.748 104.148 139.748C102.962 139.748 102.962 141.679 101.776 141.679C100.591 141.679 100.591 139.748 99.4051 139.748C98.2194 139.748 98.2193 141.679 97.0335 141.679C95.8478 141.679 95.8478 139.748 94.6621 139.748C93.4764 139.748 93.4765 141.679 92.291 141.679C91.587 141.679 91.1891 141.107 90.9367 140.445C90.3303 138.856 91.7437 135.36 92.291 132.276C92.8956 128.869 92.8447 124.625 92.9258 122.066C93.0823 117.13 95.8267 113.12 99.4058 113.12C102.985 113.12 105.625 117.138 105.886 122.066C106.026 124.722 106.338 129.129 106.91 132.626Z" fill="white"/>
<path d="M96.9684 122.643C97.3651 122.643 97.6867 122.199 97.6867 121.651C97.6867 121.104 97.3651 120.66 96.9684 120.66C96.5717 120.66 96.2501 121.104 96.2501 121.651C96.2501 122.199 96.5717 122.643 96.9684 122.643Z" fill="#292A2E"/>
<path d="M101.892 122.643C102.289 122.643 102.611 122.199 102.611 121.651C102.611 121.104 102.289 120.66 101.892 120.66C101.496 120.66 101.174 121.104 101.174 121.651C101.174 122.199 101.496 122.643 101.892 122.643Z" fill="#292A2E"/>
<path d="M100.721 124.328C100.763 124.328 100.804 124.34 100.841 124.365C100.879 124.389 100.912 124.425 100.938 124.469C100.964 124.514 100.983 124.566 100.993 124.621C101.003 124.677 101.004 124.735 100.995 124.791C100.841 125.785 100.201 126.41 99.435 126.41C98.6688 126.41 98.0288 125.785 97.8749 124.791C97.8665 124.735 97.8673 124.677 97.8772 124.621C97.8871 124.565 97.9059 124.514 97.9321 124.469C97.9583 124.425 97.9914 124.389 98.0289 124.365C98.0664 124.34 98.1074 124.328 98.1488 124.328H100.721Z" fill="white"/>
<path d="M99.4345 126.531C98.609 126.531 97.9478 125.842 97.7889 124.816C97.7776 124.743 97.7783 124.667 97.7909 124.595C97.8036 124.522 97.8279 124.454 97.8621 124.397C97.8965 124.337 97.9401 124.29 97.9896 124.257C98.0392 124.225 98.0934 124.208 98.1483 124.208H100.721C100.776 124.208 100.83 124.225 100.88 124.257C100.929 124.29 100.973 124.337 101.007 124.397C101.041 124.454 101.066 124.522 101.078 124.595C101.091 124.667 101.092 124.743 101.08 124.816C100.921 125.842 100.26 126.531 99.4345 126.531ZM98.1482 124.449C98.1193 124.449 98.0908 124.458 98.0648 124.475C98.0388 124.492 98.0159 124.517 97.9978 124.548C97.9801 124.578 97.9674 124.613 97.9608 124.651C97.9543 124.688 97.9539 124.728 97.9597 124.766C98.1008 125.677 98.6935 126.289 99.4344 126.289C100.175 126.289 100.768 125.677 100.909 124.766C100.915 124.728 100.915 124.688 100.908 124.651C100.901 124.613 100.889 124.578 100.871 124.548C100.853 124.517 100.83 124.492 100.804 124.475C100.778 124.458 100.749 124.449 100.721 124.449H98.1482Z" fill="#292A2E"/>
<path d="M277.558 183.645C277.227 183.314 277.42 181.439 277.558 180.542C279.419 177.854 266.389 175.579 265.562 178.681C264.735 181.783 260.184 185.713 256.048 187.781C251.911 189.849 250.464 192.952 251.084 195.02C251.704 197.088 254.186 197.502 254.807 197.916C255.427 198.329 270.732 199.157 275.696 197.916C280.66 196.675 281.901 192.952 281.901 191.09C281.901 189.229 277.971 184.058 277.558 183.645Z" fill="#382E35"/>
<path d="M323.541 183.645C323.872 183.314 323.678 181.439 323.541 180.542C321.679 177.854 334.709 175.579 335.536 178.681C336.364 181.783 340.914 185.713 345.05 187.781C349.187 189.849 350.635 192.952 350.014 195.02C349.394 197.088 346.912 197.502 346.291 197.916C345.671 198.329 330.366 199.157 325.402 197.916C320.438 196.675 319.197 192.952 319.197 191.09C319.197 189.229 323.127 184.058 323.541 183.645Z" fill="#382E35"/>
<path d="M276.18 181.943C255.332 177.807 248.466 158.848 247.639 149.885H353.326C350.025 174.848 331.29 180.467 329.143 181.111L329.127 181.116C327.059 181.736 302.24 187.114 276.18 181.943Z" fill="#F1F1F1"/>
<g clip-path="url(#clip1_1_230)">
<path d="M351.247 61.9852C353.315 92.5952 329.11 97.559 300.782 97.559C272.454 97.559 247.628 93.0089 250.317 61.9852C252.683 34.6845 272.454 20 300.782 20C329.11 20 349.556 36.9595 351.247 61.9852Z" fill="#F1F1F1"/>
<path fill-rule="evenodd" clip-rule="evenodd" d="M255.909 42.1301C258.253 38.5451 263.975 31.2666 269.766 30.7702C277.005 30.1498 289.001 35.734 289.001 50.2117V66.5508H300.581V66.5592H312.163V50.2201C312.163 35.7424 324.159 30.1581 331.398 30.7786C337.189 31.275 343.118 38.752 345.462 42.3369C340.682 32.0429 331.038 25.4476 321.263 22.2917C313.442 19.7665 305.67 19.5182 300.583 19.6101V19.6017C295.496 19.5098 287.722 19.7579 279.9 22.2833C270.125 25.4393 260.688 31.836 255.909 42.1301Z" fill="#3C3135"/>
<path d="M293.138 85.1493C282.714 83.9911 275.558 78.462 273.283 75.8422L328.712 75.4286C324.161 82.6674 306.168 86.5971 293.138 85.1493Z" fill="#DF921C"/>
<path d="M300.792 81.8617C285.57 82.3581 275.284 77.2427 272.043 74.6229C272.043 74.0024 280.937 62.8339 300.792 62.2135C320.647 61.593 329.334 74.6229 328.713 75.2434C328.093 75.8638 319.82 81.2413 300.792 81.8617Z" fill="#FFC921"/>
<ellipse cx="315.145" cy="69.1331" rx="2.48189" ry="1.65459" transform="rotate(36.3995 315.145 69.1331)" fill="#2C2728"/>
<ellipse cx="2.48189" cy="1.65459" rx="2.48189" ry="1.65459" transform="matrix(-0.804899 0.593412 0.593412 0.804899 286.793 66.3285)" fill="#2C2728"/>
<path d="M258.648 54.8544C258.353 61.9063 262.268 67.7969 267.392 68.0114C272.516 68.2259 276.91 62.6832 277.205 55.6313C277.5 48.5794 273.585 42.6888 268.461 42.4743C263.337 42.2597 258.943 47.8025 258.648 54.8544Z" fill="#292826"/>
<path d="M255.875 47C255.58 54.0519 257.269 48.3306 267.392 47C275 46 278.705 55.5519 279 48.5C279.295 41.4481 273.719 39.7292 268.595 39.5146C263.47 39.3001 256.17 39.9481 255.875 47Z" fill="#F1F1F1"/>
<path d="M255.875 63.5C254.25 66.5 258.648 69.5 267.392 70.5C274.693 71.3349 274.333 69.5 279.833 65C280.128 57.9481 275 66 267.392 66.5C260 66.5 257.5 60.5 255.875 63.5Z" fill="#F1F1F1"/>
<path d="M342.231 54.8582C342.526 61.9101 338.611 67.8007 333.486 68.0152C328.362 68.2297 323.968 62.687 323.673 55.6351C323.378 48.5832 327.293 42.6926 332.417 42.4781C337.542 42.2635 341.935 47.8063 342.231 54.8582Z" fill="#292826"/>
<path d="M345.004 47.0038C345.299 54.0557 343.609 48.3344 333.486 47.0038C325.878 46.0038 322.174 55.5557 321.878 48.5038C321.583 41.4519 327.159 39.733 332.284 39.5184C337.408 39.3039 344.708 39.9519 345.004 47.0038Z" fill="#F1F1F1"/>
<path d="M345.004 63.5038C346.629 66.5038 342.231 69.5038 333.486 70.5038C326.186 71.3387 326.545 69.5038 321.045 65.0038C320.75 57.9519 325.878 66.0038 333.486 66.5038C340.878 66.5038 343.378 60.5038 345.004 63.5038Z" fill="#F1F1F1"/>
</g>
<path d="M265.011 91.5612L262.115 94.2499C264.39 101.075 283.27 100.455 304.101 100.455C319.819 100.455 331.47 96.9386 336.779 93.8362L335.538 91.5612H265.011Z" fill="#F1F1F1"/>
<path d="M337.032 93.2158C338.273 93.9741 340.755 95.5736 340.755 95.9045C340.755 96.3182 350.269 101.696 352.337 106.246C354.405 110.796 363.712 128.376 364.126 128.583C364.54 128.79 364.746 130.03 365.574 130.444C366.401 130.858 368.469 131.271 368.469 132.926C368.469 134.581 366.401 139.544 364.953 140.992C363.506 142.44 360.403 144.715 357.714 143.267C355.026 141.819 356.474 140.165 356.06 139.338C355.796 138.809 355.279 138.197 354.724 137.339C354.423 137.822 354.405 138.924 354.405 139.958C354.405 140.992 355.646 144.715 355.439 146.37C355.232 148.024 353.785 149.679 348.2 153.402C342.616 157.124 320.486 158.986 318.831 159.193C317.177 159.399 291.324 160.02 272.296 158.159C253.268 156.297 249.132 151.333 246.857 149.265C244.581 147.197 244.995 142.854 245.822 141.819C246.484 140.992 246.35 138.579 246.2 137.476C246.019 137.874 245.889 138.097 245.822 138.097C245.202 138.097 244.581 139.338 244.375 140.578C244.168 141.819 241.479 144.922 237.963 143.267C234.447 141.613 232.793 135.615 232.379 133.546C231.965 131.478 234.447 130.858 235.068 130.651C235.688 130.444 236.309 129.617 236.516 128.583C236.722 127.549 241.066 120.723 244.582 112.657C248.098 104.591 258.232 96.7318 258.853 96.3182C259.349 95.9872 261.817 94.112 262.989 93.2158C263.609 96.1113 279.121 98.1796 302.699 98.8C321.562 99.2964 333.447 95.284 337.032 93.2158Z" fill="#980808"/>
<path d="M238.602 143.06C237.94 143.06 235.155 139.613 233.845 137.89C233.5 138.234 232.728 139.337 232.397 140.992C231.984 143.06 233.638 145.749 235.086 145.956C236.244 146.121 237.913 144.094 238.602 143.06Z" fill="#F1F1F1"/>
<path d="M362.219 143.06C362.881 143.06 365.666 139.613 366.976 137.89C367.32 138.234 368.093 139.337 368.424 140.992C368.837 143.06 367.183 145.749 365.735 145.956C364.577 146.121 362.908 144.094 362.219 143.06Z" fill="#F1F1F1"/>
<path d="M290.251 125.222C290.328 125.103 290.421 125.007 290.524 124.937C290.628 124.868 290.741 124.828 290.856 124.819C290.971 124.81 291.086 124.832 291.195 124.885C291.304 124.937 291.404 125.018 291.49 125.124L294.292 128.574L293.123 130.382L290.322 126.933C290.236 126.827 290.166 126.699 290.116 126.556C290.065 126.412 290.036 126.257 290.03 126.098C290.023 125.939 290.039 125.78 290.077 125.63C290.115 125.479 290.174 125.341 290.251 125.222Z" fill="white"/>
<path d="M305.745 130.382L304.576 128.573L307.377 125.124C307.551 124.91 307.779 124.8 308.012 124.819C308.244 124.837 308.462 124.982 308.617 125.222C308.772 125.462 308.851 125.777 308.838 126.098C308.825 126.418 308.719 126.719 308.546 126.933L305.745 130.382Z" fill="white"/>
<path d="M306.91 132.626C307.535 136.446 308.39 138.904 307.964 140.315C307.74 141.057 307.281 141.679 306.52 141.679C305.334 141.679 305.334 139.748 304.148 139.748C302.962 139.748 302.962 141.679 301.776 141.679C300.591 141.679 300.591 139.748 299.405 139.748C298.219 139.748 298.219 141.679 297.034 141.679C295.848 141.679 295.848 139.748 294.662 139.748C293.476 139.748 293.477 141.679 292.291 141.679C291.587 141.679 291.189 141.107 290.937 140.445C290.33 138.856 291.744 135.36 292.291 132.276C292.896 128.869 292.845 124.625 292.926 122.066C293.082 117.13 295.827 113.12 299.406 113.12C302.985 113.12 305.625 117.138 305.886 122.066C306.026 124.722 306.338 129.129 306.91 132.626Z" fill="white"/>
<path d="M296.968 122.643C297.365 122.643 297.687 122.199 297.687 121.651C297.687 121.104 297.365 120.66 296.968 120.66C296.572 120.66 296.25 121.104 296.25 121.651C296.25 122.199 296.572 122.643 296.968 122.643Z" fill="#292A2E"/>
<path d="M301.892 122.643C302.289 122.643 302.611 122.199 302.611 121.651C302.611 121.104 302.289 120.66 301.892 120.66C301.496 120.66 301.174 121.104 301.174 121.651C301.174 122.199 301.496 122.643 301.892 122.643Z" fill="#292A2E"/>
<path d="M300.721 124.328C300.763 124.328 300.804 124.34 300.841 124.365C300.879 124.389 300.912 124.425 300.938 124.469C300.964 124.514 300.983 124.566 300.993 124.621C301.003 124.677 301.004 124.735 300.995 124.791C300.841 125.785 300.201 126.41 299.435 126.41C298.669 126.41 298.029 125.785 297.875 124.791C297.867 124.735 297.867 124.677 297.877 124.621C297.887 124.565 297.906 124.514 297.932 124.469C297.958 124.425 297.991 124.389 298.029 124.365C298.066 124.34 298.107 124.328 298.149 124.328H300.721Z" fill="white"/>
<path d="M299.434 126.531C298.609 126.531 297.948 125.842 297.789 124.816C297.778 124.743 297.778 124.667 297.791 124.595C297.804 124.522 297.828 124.454 297.862 124.397C297.896 124.337 297.94 124.29 297.99 124.257C298.039 124.225 298.093 124.208 298.148 124.208H300.721C300.776 124.208 300.83 124.225 300.88 124.257C300.929 124.29 300.973 124.337 301.007 124.397C301.041 124.454 301.066 124.522 301.078 124.595C301.091 124.667 301.092 124.743 301.08 124.816C300.921 125.842 300.26 126.531 299.434 126.531ZM298.148 124.449C298.119 124.449 298.091 124.458 298.065 124.475C298.039 124.492 298.016 124.517 297.998 124.548C297.98 124.578 297.967 124.613 297.961 124.651C297.954 124.688 297.954 124.728 297.96 124.766C298.101 125.677 298.693 126.289 299.434 126.289C300.175 126.289 300.768 125.677 300.909 124.766C300.915 124.728 300.915 124.688 300.908 124.651C300.901 124.613 300.889 124.578 300.871 124.548C300.853 124.517 300.83 124.492 300.804 124.475C300.778 124.458 300.749 124.449 300.721 124.449H298.148Z" fill="#292A2E"/>
<path d="M476.225 183.645C475.894 183.314 476.087 181.439 476.225 180.542C478.086 177.854 465.056 175.579 464.229 178.681C463.402 181.783 458.851 185.713 454.715 187.781C450.578 189.849 449.131 192.952 449.751 195.02C450.372 197.088 452.854 197.502 453.474 197.916C454.094 198.329 469.399 199.157 474.363 197.916C479.327 196.675 480.568 192.952 480.568 191.09C480.568 189.229 476.638 184.058 476.225 183.645Z" fill="#382E35"/>
<path d="M522.208 183.645C522.539 183.314 522.346 181.439 522.208 180.542C520.346 177.854 533.376 175.579 534.204 178.681C535.031 181.783 539.581 185.713 543.718 187.781C547.854 189.849 549.302 192.952 548.681 195.02C548.061 197.088 545.579 197.502 544.959 197.916C544.338 198.329 529.033 199.157 524.069 197.916C519.106 196.675 517.865 192.952 517.865 191.09C517.865 189.229 521.794 184.058 522.208 183.645Z" fill="#382E35"/>
<path d="M474.847 181.943C454 177.807 447.133 158.848 446.306 149.885H551.993C548.692 174.848 529.957 180.467 527.81 181.111L527.794 181.116C525.726 181.736 500.907 187.114 474.847 181.943Z" fill="#F1F1F1"/>
<g clip-path="url(#clip2_1_230)">
<path d="M549.914 61.9852C551.982 92.5952 527.777 97.559 499.449 97.559C471.121 97.559 446.295 93.0089 448.984 61.9852C451.35 34.6845 471.121 20 499.449 20C527.777 20 548.223 36.9595 549.914 61.9852Z" fill="#F1F1F1"/>
<path fill-rule="evenodd" clip-rule="evenodd" d="M454.576 42.1301C456.92 38.5451 462.642 31.2666 468.433 30.7702C475.672 30.1498 487.668 35.734 487.668 50.2117V66.5508H499.248V66.5592H510.83V50.2201C510.83 35.7424 522.826 30.1581 530.065 30.7786C535.856 31.275 541.785 38.752 544.129 42.3369C539.35 32.0429 529.706 25.4476 519.931 22.2917C512.11 19.7665 504.337 19.5182 499.25 19.6101V19.6017C494.163 19.5098 486.39 19.7579 478.568 22.2833C468.793 25.4393 459.355 31.836 454.576 42.1301Z" fill="#3C3135"/>
<path d="M491.805 85.1493C481.381 83.9911 474.225 78.462 471.95 75.8422L527.379 75.4286C522.829 82.6674 504.835 86.5971 491.805 85.1493Z" fill="#DF921C"/>
<path d="M499.459 81.8617C484.237 82.3581 473.951 77.2427 470.711 74.6229C470.711 74.0024 479.604 62.8339 499.459 62.2135C519.314 61.593 528.001 74.6229 527.38 75.2434C526.76 75.8638 518.487 81.2413 499.459 81.8617Z" fill="#FFC921"/>
<ellipse cx="513.812" cy="69.1331" rx="2.48189" ry="1.65459" transform="rotate(36.3995 513.812 69.1331)" fill="#2C2728"/>
<ellipse cx="2.48189" cy="1.65459" rx="2.48189" ry="1.65459" transform="matrix(-0.804899 0.593412 0.593412 0.804899 485.46 66.3285)" fill="#2C2728"/>
<path d="M540.686 56.8544C540.981 63.9063 537.066 69.7969 531.942 70.0114C526.817 70.2259 522.424 64.6831 522.129 57.6312C521.833 50.5794 525.748 44.6888 530.873 44.4742C535.997 44.2597 540.391 49.8025 540.686 56.8544Z" fill="#292826"/>
<path d="M544.018 52.1696C544.313 59.2215 541.35 57.5872 531.754 53.895C524.896 51.2561 519.737 60.6113 519.442 53.5594C519.146 46.5075 526.174 42.7292 531.298 42.5146C536.423 42.3001 543.723 45.1177 544.018 52.1696Z" fill="#F1F1F1"/>
<path d="M458.337 54.3365C456.495 61.1498 459.155 67.7967 464.281 69.1829C469.406 70.569 475.054 66.1694 476.897 59.3561C478.74 52.5429 476.079 45.8959 470.954 44.5098C465.829 43.1237 460.18 47.5232 458.337 54.3365Z" fill="#292826"/>
<path d="M456.001 49C454.158 55.8133 457.507 54.8992 468.001 53.5C475.501 52.5 478.658 62.8133 480.501 56C482.344 49.1867 476.079 43.8861 470.954 42.5C465.829 41.1139 457.844 42.1867 456.001 49Z" fill="#F1F1F1"/>
<path d="M458.337 54.3365C456.495 61.1498 459.155 67.7967 464.281 69.1829C469.406 70.569 475.054 66.1694 476.897 59.3561C478.74 52.5429 476.079 45.8959 470.954 44.5098C465.829 43.1237 460.18 47.5232 458.337 54.3365Z" fill="#292826"/>
<path d="M456.001 49C454.158 55.8133 457.507 54.8992 468.001 53.5C475.501 52.5 478.658 62.8133 480.501 56C482.344 49.1867 476.079 43.8861 470.954 42.5C465.829 41.1139 457.844 42.1867 456.001 49Z" fill="#F1F1F1"/>
<path d="M477.5 64C477.5 65.6569 469.971 71 465 71C460.029 71 455 62.6569 455 61C455 59.3431 458.5 64 465 65C471 65 477.5 62.3432 477.5 64Z" fill="#F1F1F1"/>
<path d="M521 64.3531C521 66.01 528.529 71.3531 533.5 71.3531C538.471 71.3531 543.5 63.0099 543.5 61.3531C543.5 59.6962 540 64.3531 533.5 65.3531C527.5 65.3531 521 62.6962 521 64.3531Z" fill="#F1F1F1"/>
</g>
<path d="M463.678 91.5612L460.783 94.2499C463.058 101.075 481.937 100.455 502.768 100.455C518.486 100.455 530.138 96.9386 535.446 93.8362L534.205 91.5612H463.678Z" fill="#F1F1F1"/>
<path d="M535.699 93.2158C536.94 93.9741 539.422 95.5736 539.422 95.9045C539.422 96.3182 548.936 101.696 551.004 106.246C553.072 110.796 562.38 128.376 562.793 128.583C563.207 128.79 563.414 130.03 564.241 130.444C565.068 130.858 567.136 131.271 567.136 132.926C567.136 134.581 565.068 139.544 563.62 140.992C562.173 142.44 559.07 144.715 556.382 143.267C553.693 141.819 555.141 140.165 554.727 139.338C554.463 138.809 553.946 138.197 553.391 137.339C553.09 137.822 553.072 138.924 553.072 139.958C553.072 140.992 554.313 144.715 554.106 146.37C553.9 148.024 552.452 149.679 546.868 153.402C541.283 157.124 519.153 158.986 517.499 159.193C515.844 159.399 489.991 160.02 470.963 158.159C451.935 156.297 447.799 151.333 445.524 149.265C443.249 147.197 443.662 142.854 444.49 141.819C445.151 140.992 445.017 138.579 444.867 137.476C444.686 137.874 444.556 138.097 444.49 138.097C443.869 138.097 443.249 139.338 443.042 140.578C442.835 141.819 440.146 144.922 436.63 143.267C433.114 141.613 431.46 135.615 431.046 133.546C430.633 131.478 433.114 130.858 433.735 130.651C434.355 130.444 434.976 129.617 435.183 128.583C435.39 127.549 439.733 120.723 443.249 112.657C446.765 104.591 456.899 96.7318 457.52 96.3182C458.016 95.9872 460.484 94.112 461.656 93.2158C462.277 96.1113 477.788 98.1796 501.366 98.8C520.229 99.2964 532.114 95.284 535.699 93.2158Z" fill="#980808"/>
<path d="M437.269 143.06C436.607 143.06 433.822 139.613 432.512 137.89C432.168 138.234 431.395 139.337 431.065 140.992C430.651 143.06 432.305 145.749 433.753 145.956C434.911 146.121 436.58 144.094 437.269 143.06Z" fill="#F1F1F1"/>
<path d="M560.886 143.06C561.548 143.06 564.333 139.613 565.643 137.89C565.988 138.234 566.76 139.337 567.091 140.992C567.504 143.06 565.85 145.749 564.402 145.956C563.244 146.121 561.575 144.094 560.886 143.06Z" fill="#F1F1F1"/>
<path d="M514.877 125.222C514.992 125.103 515.132 125.007 515.288 124.937C515.443 124.868 515.612 124.828 515.785 124.819C515.957 124.81 516.13 124.832 516.294 124.885C516.457 124.937 516.607 125.018 516.736 125.124L520.938 128.574L519.185 130.382L514.984 126.933C514.854 126.827 514.749 126.699 514.674 126.556C514.599 126.412 514.555 126.257 514.545 126.098C514.536 125.939 514.56 125.78 514.617 125.63C514.674 125.479 514.762 125.341 514.877 125.222Z" fill="white"/>
<path d="M538.117 130.382L536.365 128.573L540.567 125.124C540.827 124.91 541.169 124.8 541.518 124.819C541.867 124.837 542.193 124.982 542.426 125.222C542.658 125.462 542.777 125.777 542.757 126.098C542.738 126.418 542.58 126.719 542.319 126.933L538.117 130.382Z" fill="white"/>
<path d="M539.866 132.626C540.803 136.446 542.086 138.904 541.447 140.315C541.111 141.057 540.422 141.679 539.281 141.679C537.502 141.679 537.502 139.748 535.723 139.748C533.944 139.748 533.944 141.679 532.165 141.679C530.387 141.679 530.387 139.748 528.608 139.748C526.83 139.748 526.83 141.679 525.051 141.679C523.272 141.679 523.273 139.748 521.494 139.748C519.715 139.748 519.716 141.679 517.937 141.679C516.881 141.679 516.284 141.107 515.906 140.445C514.996 138.856 517.116 135.36 517.937 132.276C518.844 128.869 518.768 124.625 518.889 122.066C519.124 117.13 523.241 113.12 528.61 113.12C533.978 113.12 537.939 117.138 538.33 122.066C538.54 124.722 539.008 129.129 539.866 132.626Z" fill="white"/>
<path d="M524.953 122.643C525.548 122.643 526.031 122.199 526.031 121.651C526.031 121.104 525.548 120.66 524.953 120.66C524.358 120.66 523.876 121.104 523.876 121.651C523.876 122.199 524.358 122.643 524.953 122.643Z" fill="#292A2E"/>
<path d="M532.34 122.643C532.935 122.643 533.417 122.199 533.417 121.651C533.417 121.104 532.935 120.66 532.34 120.66C531.744 120.66 531.262 121.104 531.262 121.651C531.262 122.199 531.744 122.643 532.34 122.643Z" fill="#292A2E"/>
<path d="M530.583 124.328C530.645 124.328 530.706 124.34 530.763 124.365C530.819 124.389 530.868 124.425 530.908 124.469C530.947 124.514 530.975 124.566 530.99 124.621C531.005 124.677 531.006 124.735 530.994 124.791C530.763 125.785 529.803 126.41 528.653 126.41C527.504 126.41 526.544 125.785 526.313 124.791C526.301 124.735 526.302 124.677 526.317 124.621C526.331 124.565 526.36 124.514 526.399 124.469C526.438 124.425 526.488 124.389 526.544 124.365C526.6 124.34 526.662 124.328 526.724 124.328H530.583Z" fill="white"/>
<path d="M528.653 126.531C527.414 126.531 526.422 125.842 526.184 124.816C526.167 124.743 526.168 124.667 526.187 124.595C526.206 124.522 526.243 124.454 526.294 124.397C526.346 124.337 526.411 124.29 526.485 124.257C526.56 124.225 526.641 124.208 526.723 124.208H530.582C530.665 124.208 530.746 124.225 530.82 124.257C530.895 124.29 530.96 124.337 531.012 124.397C531.063 124.454 531.099 124.522 531.118 124.595C531.137 124.667 531.138 124.743 531.121 124.816C530.883 125.842 529.89 126.531 528.653 126.531ZM526.723 124.449C526.68 124.449 526.637 124.458 526.598 124.475C526.559 124.492 526.525 124.517 526.497 124.548C526.471 124.578 526.452 124.613 526.442 124.651C526.432 124.688 526.432 124.728 526.44 124.766C526.652 125.677 527.541 126.289 528.652 126.289C529.764 126.289 530.653 125.677 530.864 124.766C530.873 124.728 530.873 124.688 530.863 124.651C530.853 124.613 530.834 124.578 530.807 124.548C530.78 124.517 530.746 124.492 530.707 124.475C530.668 124.458 530.625 124.449 530.582 124.449H526.723Z" fill="#292A2E"/>
<path d="M677.558 183.645C677.227 183.314 677.42 181.439 677.558 180.542C679.419 177.854 666.389 175.579 665.562 178.681C664.735 181.783 660.184 185.713 656.048 187.781C651.911 189.849 650.463 192.952 651.084 195.02C651.704 197.088 654.186 197.502 654.807 197.916C655.427 198.329 670.732 199.157 675.696 197.916C680.66 196.675 681.901 192.952 681.901 191.09C681.901 189.229 677.971 184.058 677.558 183.645Z" fill="#382E35"/>
<path d="M723.541 183.645C723.872 183.314 723.678 181.439 723.541 180.542C721.679 177.854 734.709 175.579 735.536 178.681C736.364 181.783 740.914 185.713 745.05 187.781C749.187 189.849 750.635 192.952 750.014 195.02C749.394 197.088 746.912 197.502 746.291 197.916C745.671 198.329 730.366 199.157 725.402 197.916C720.438 196.675 719.197 192.952 719.197 191.09C719.197 189.229 723.127 184.058 723.541 183.645Z" fill="#382E35"/>
<path d="M676.18 181.943C655.332 177.807 648.466 158.848 647.639 149.885H753.326C750.025 174.848 731.29 180.467 729.143 181.111L729.127 181.116C727.059 181.736 702.24 187.114 676.18 181.943Z" fill="#F1F1F1"/>
<g clip-path="url(#clip3_1_230)">
<path d="M751.247 61.9852C753.315 92.5952 729.11 97.559 700.782 97.559C672.454 97.559 647.628 93.0089 650.317 61.9852C652.683 34.6845 672.454 20 700.782 20C729.11 20 749.556 36.9595 751.247 61.9852Z" fill="#F1F1F1"/>
<path fill-rule="evenodd" clip-rule="evenodd" d="M655.909 42.1301C658.253 38.5451 663.975 31.2666 669.766 30.7702C677.005 30.1498 689.001 35.734 689.001 50.2117V66.5508H700.581V66.5592H712.163V50.2201C712.163 35.7424 724.159 30.1581 731.398 30.7786C737.189 31.275 743.118 38.752 745.462 42.3369C740.682 32.0429 731.038 25.4476 721.263 22.2917C713.442 19.7665 705.67 19.5182 700.583 19.6101V19.6017C695.496 19.5098 687.722 19.7579 679.9 22.2833C670.125 25.4393 660.688 31.836 655.909 42.1301Z" fill="#3C3135"/>
<path d="M693.138 85.1493C682.714 83.9911 675.558 78.462 673.283 75.8422L728.712 75.4286C724.161 82.6674 706.168 86.5971 693.138 85.1493Z" fill="#DF921C"/>
<path d="M700.792 81.8617C685.57 82.3581 675.284 77.2427 672.043 74.6229C672.043 74.0024 680.937 62.8339 700.792 62.2135C720.647 61.593 729.334 74.6229 728.713 75.2434C728.093 75.8638 719.82 81.2413 700.792 81.8617Z" fill="#FFC921"/>
<ellipse cx="715.145" cy="69.1331" rx="2.48189" ry="1.65459" transform="rotate(36.3995 715.145 69.1331)" fill="#2C2728"/>
<ellipse cx="2.48189" cy="1.65459" rx="2.48189" ry="1.65459" transform="matrix(-0.804899 0.593412 0.593412 0.804899 686.793 66.3285)" fill="#2C2728"/>
<path d="M659.67 54.3365C657.827 61.1498 660.488 67.7967 665.613 69.1829C670.738 70.569 676.387 66.1694 678.23 59.3561C680.072 52.5429 677.411 45.8959 672.286 44.5098C667.161 43.1237 661.513 47.5232 659.67 54.3365Z" fill="#292826"/>
<path d="M655.334 51.5C653.491 58.3133 656.834 58 668.334 57C675.872 56.3445 679.991 62.8133 681.834 56C683.676 49.1867 677.411 43.8861 672.286 42.5C667.161 41.1139 657.176 44.6867 655.334 51.5Z" fill="#F1F1F1"/>
<path d="M678.334 66C678.334 67.6568 671.304 70.9817 666.334 70.9817C661.363 70.9817 654.834 67.6568 654.834 66C654.834 64.3431 656.334 62 666.334 62.5C677.334 63.05 678.334 64.3431 678.334 66Z" fill="#F1F1F1"/>
<path d="M742.249 54.4956C744.091 61.3089 741.431 67.9558 736.305 69.342C731.18 70.7281 725.532 66.3285 723.689 59.5152C721.846 52.702 724.507 46.055 729.632 44.6689C734.757 43.2828 740.406 47.6823 742.249 54.4956Z" fill="#292826"/>
<path d="M746.585 51.6591C748.428 58.4724 745.085 58.1591 733.585 57.1591C726.047 56.5036 721.928 62.9724 720.085 56.1591C718.242 49.3458 724.507 44.0452 729.632 42.6591C734.757 41.273 744.742 44.8458 746.585 51.6591Z" fill="#F1F1F1"/>
<path d="M723.585 66.1591C723.585 67.816 730.615 71.1408 735.585 71.1408C740.556 71.1408 747.085 67.816 747.085 66.1591C747.085 64.5022 745.585 62.1591 735.585 62.6591C724.585 63.2091 723.585 64.5022 723.585 66.1591Z" fill="#F1F1F1"/>
</g>
<path d="M665.011 91.5612L662.115 94.2499C664.39 101.075 683.27 100.455 704.101 100.455C719.819 100.455 731.47 96.9386 736.779 93.8362L735.538 91.5612H665.011Z" fill="#F1F1F1"/>
<path d="M737.032 93.2158C738.273 93.9741 740.755 95.5736 740.755 95.9045C740.755 96.3182 750.269 101.696 752.337 106.246C754.405 110.796 763.712 128.376 764.126 128.583C764.54 128.79 764.746 130.03 765.574 130.444C766.401 130.858 768.469 131.271 768.469 132.926C768.469 134.581 766.401 139.544 764.953 140.992C763.506 142.44 760.403 144.715 757.714 143.267C755.026 141.819 756.474 140.165 756.06 139.338C755.796 138.809 755.279 138.197 754.724 137.339C754.423 137.822 754.405 138.924 754.405 139.958C754.405 140.992 755.646 144.715 755.439 146.37C755.232 148.024 753.785 149.679 748.2 153.402C742.616 157.124 720.486 158.986 718.831 159.193C717.177 159.399 691.324 160.02 672.296 158.159C653.268 156.297 649.132 151.333 646.857 149.265C644.581 147.197 644.995 142.854 645.822 141.819C646.484 140.992 646.35 138.579 646.2 137.476C646.019 137.874 645.889 138.097 645.822 138.097C645.202 138.097 644.581 139.338 644.375 140.578C644.168 141.819 641.479 144.922 637.963 143.267C634.447 141.613 632.793 135.615 632.379 133.546C631.965 131.478 634.447 130.858 635.068 130.651C635.688 130.444 636.309 129.617 636.516 128.583C636.722 127.549 641.066 120.723 644.582 112.657C648.098 104.591 658.232 96.7318 658.853 96.3182C659.349 95.9872 661.817 94.112 662.989 93.2158C663.609 96.1113 679.121 98.1796 702.699 98.8C721.562 99.2964 733.447 95.284 737.032 93.2158Z" fill="#980808"/>
<path d="M638.602 143.06C637.94 143.06 635.155 139.613 633.845 137.89C633.5 138.234 632.728 139.337 632.397 140.992C631.984 143.06 633.638 145.749 635.086 145.956C636.244 146.121 637.913 144.094 638.602 143.06Z" fill="#F1F1F1"/>
<path d="M762.219 143.06C762.881 143.06 765.666 139.613 766.976 137.89C767.32 138.234 768.093 139.337 768.423 140.992C768.837 143.06 767.183 145.749 765.735 145.956C764.577 146.121 762.908 144.094 762.219 143.06Z" fill="#F1F1F1"/>
<path d="M688.228 124.222C688.302 124.103 688.391 124.007 688.491 123.937C688.591 123.868 688.699 123.828 688.81 123.819C688.92 123.81 689.031 123.832 689.136 123.885C689.24 123.937 689.337 124.018 689.419 124.124L692.112 127.574L690.989 129.382L688.296 125.933C688.214 125.827 688.146 125.699 688.098 125.556C688.05 125.412 688.022 125.257 688.016 125.098C688.009 124.939 688.025 124.78 688.061 124.63C688.098 124.479 688.155 124.341 688.228 124.222Z" fill="white"/>
<path d="M703.119 129.382L701.996 127.573L704.688 124.124C704.855 123.91 705.075 123.8 705.298 123.819C705.521 123.837 705.73 123.982 705.879 124.222C706.028 124.462 706.105 124.777 706.092 125.098C706.079 125.418 705.978 125.719 705.811 125.933L703.119 129.382Z" fill="white"/>
<path d="M704.239 131.626C704.84 135.446 705.662 137.904 705.252 139.315C705.037 140.057 704.596 140.679 703.864 140.679C702.725 140.679 702.725 138.748 701.585 138.748C700.445 138.748 700.445 140.679 699.305 140.679C698.166 140.679 698.166 138.748 697.026 138.748C695.887 138.748 695.887 140.679 694.747 140.679C693.607 140.679 693.607 138.748 692.468 138.748C691.328 138.748 691.328 140.679 690.189 140.679C689.512 140.679 689.13 140.107 688.887 139.445C688.304 137.856 689.663 134.36 690.189 131.276C690.77 127.869 690.721 123.625 690.799 121.066C690.949 116.13 693.587 112.12 697.027 112.12C700.467 112.12 703.004 116.138 703.255 121.066C703.39 123.722 703.689 128.129 704.239 131.626Z" fill="white"/>
<path d="M694.684 121.643C695.066 121.643 695.375 121.199 695.375 120.651C695.375 120.104 695.066 119.66 694.684 119.66C694.303 119.66 693.994 120.104 693.994 120.651C693.994 121.199 694.303 121.643 694.684 121.643Z" fill="#292A2E"/>
<path d="M699.417 121.643C699.798 121.643 700.107 121.199 700.107 120.651C700.107 120.104 699.798 119.66 699.417 119.66C699.036 119.66 698.727 120.104 698.727 120.651C698.727 121.199 699.036 121.643 699.417 121.643Z" fill="#292A2E"/>
<path d="M698.291 123.328C698.331 123.328 698.371 123.34 698.407 123.365C698.443 123.389 698.474 123.425 698.5 123.469C698.525 123.514 698.543 123.566 698.552 123.621C698.562 123.677 698.563 123.735 698.555 123.791C698.407 124.785 697.791 125.41 697.055 125.41C696.319 125.41 695.704 124.785 695.556 123.791C695.548 123.735 695.548 123.677 695.558 123.621C695.567 123.565 695.585 123.514 695.611 123.469C695.636 123.425 695.668 123.389 695.704 123.365C695.74 123.34 695.779 123.328 695.819 123.328H698.291Z" fill="white"/>
<path d="M697.055 125.531C696.261 125.531 695.626 124.842 695.473 123.816C695.462 123.743 695.463 123.667 695.475 123.595C695.487 123.522 695.51 123.454 695.543 123.397C695.576 123.337 695.618 123.29 695.666 123.257C695.713 123.225 695.766 123.208 695.818 123.208H698.291C698.344 123.208 698.396 123.225 698.443 123.257C698.491 123.29 698.533 123.337 698.566 123.397C698.599 123.454 698.622 123.522 698.634 123.595C698.647 123.667 698.647 123.743 698.636 123.816C698.483 124.842 697.848 125.531 697.055 125.531ZM695.818 123.449C695.791 123.449 695.763 123.458 695.738 123.475C695.713 123.492 695.691 123.517 695.674 123.548C695.657 123.578 695.645 123.613 695.638 123.651C695.632 123.688 695.631 123.728 695.637 123.766C695.773 124.677 696.342 125.289 697.054 125.289C697.767 125.289 698.336 124.677 698.472 123.766C698.477 123.728 698.477 123.688 698.471 123.651C698.464 123.613 698.452 123.578 698.435 123.548C698.418 123.517 698.396 123.492 698.371 123.475C698.346 123.458 698.318 123.449 698.291 123.449H695.818Z" fill="#292A2E"/>
<path d="M876.225 183.645C875.894 183.314 876.087 181.439 876.225 180.542C878.086 177.854 865.056 175.579 864.229 178.681C863.402 181.783 858.851 185.713 854.715 187.781C850.578 189.849 849.131 192.952 849.751 195.02C850.372 197.088 852.854 197.502 853.474 197.916C854.094 198.329 869.399 199.157 874.363 197.916C879.327 196.675 880.568 192.952 880.568 191.09C880.568 189.229 876.638 184.058 876.225 183.645Z" fill="#382E35"/>
<path d="M922.208 183.645C922.539 183.314 922.346 181.439 922.208 180.542C920.346 177.854 933.376 175.579 934.204 178.681C935.031 181.783 939.581 185.713 943.718 187.781C947.854 189.849 949.302 192.952 948.681 195.02C948.061 197.088 945.579 197.502 944.959 197.916C944.338 198.329 929.033 199.157 924.069 197.916C919.106 196.675 917.865 192.952 917.865 191.09C917.865 189.229 921.794 184.058 922.208 183.645Z" fill="#382E35"/>
<path d="M874.847 181.943C854 177.807 847.133 158.848 846.306 149.885H951.993C948.692 174.848 929.957 180.467 927.81 181.111L927.794 181.116C925.726 181.736 900.907 187.114 874.847 181.943Z" fill="#F1F1F1"/>
<g clip-path="url(#clip4_1_230)">
<path d="M949.914 61.9852C951.982 92.5952 927.777 97.559 899.449 97.559C871.121 97.559 846.295 93.0089 848.984 61.9852C851.35 34.6845 871.121 20 899.449 20C927.777 20 948.223 36.9595 949.914 61.9852Z" fill="#F1F1F1"/>
<path fill-rule="evenodd" clip-rule="evenodd" d="M854.576 42.1301C856.92 38.5451 862.642 31.2666 868.433 30.7702C875.672 30.1498 887.668 35.734 887.668 50.2117V66.5508H899.248V66.5592H910.83V50.2201C910.83 35.7424 922.826 30.1581 930.065 30.7786C935.856 31.275 941.785 38.752 944.129 42.3369C939.35 32.0429 929.706 25.4476 919.931 22.2917C912.109 19.7665 904.337 19.5182 899.25 19.6101V19.6017C894.163 19.5098 886.39 19.7579 878.568 22.2833C868.793 25.4393 859.355 31.836 854.576 42.1301Z" fill="#3C3135"/>
<path d="M891.805 85.1493C881.381 83.9911 874.225 78.462 871.95 75.8422L927.379 75.4286C922.829 82.6674 904.835 86.5971 891.805 85.1493Z" fill="#DF921C"/>
<path d="M899.459 81.8617C884.237 82.3581 873.951 77.2427 870.711 74.6229C870.711 74.0024 879.604 62.8339 899.459 62.2135C919.314 61.593 928.001 74.6229 927.38 75.2434C926.76 75.8638 918.487 81.2413 899.459 81.8617Z" fill="#FFC921"/>
<ellipse cx="913.812" cy="69.1331" rx="2.48189" ry="1.65459" transform="rotate(36.3995 913.812 69.1331)" fill="#2C2728"/>
<ellipse cx="2.48189" cy="1.65459" rx="2.48189" ry="1.65459" transform="matrix(-0.804899 0.593412 0.593412 0.804899 885.46 66.3285)" fill="#2C2728"/>
<path d="M858.337 54.3365C856.495 61.1498 859.155 67.7967 864.281 69.1829C869.406 70.569 875.054 66.1694 876.897 59.3561C878.74 52.5429 876.079 45.8959 870.954 44.5098C865.829 43.1237 860.18 47.5232 858.337 54.3365Z" fill="#292826"/>
<path d="M852.501 58C850.658 64.8133 855.501 60.3561 867.001 59.3561C874.539 58.7007 879.158 66.1694 881.001 59.3561C882.844 52.5429 876.079 43.8861 870.954 42.5C865.829 41.1139 854.344 51.1867 852.501 58Z" fill="#F1F1F1"/>
<path d="M877.001 64.5C877.001 66.1569 869.971 70.9817 865.001 70.9817C860.03 70.9817 853.501 67.6569 853.501 66C853.501 64.3432 855.001 60.5 865.001 61C876.001 61.55 877.001 62.8432 877.001 64.5Z" fill="#F1F1F1"/>
<path d="M940.228 54.4306C942.07 61.2439 939.409 67.8908 934.284 69.2769C929.159 70.6631 923.511 66.2635 921.668 59.4502C919.825 52.6369 922.486 45.99 927.611 44.6039C932.736 43.2177 938.385 47.6173 940.228 54.4306Z" fill="#292826"/>
<path d="M946.064 58.0941C947.907 64.9073 943.064 60.4502 931.564 59.4502C924.026 58.7947 919.407 66.2635 917.564 59.4502C915.721 52.6369 922.486 43.9802 927.611 42.5941C932.736 41.2079 944.221 51.2808 946.064 58.0941Z" fill="#F1F1F1"/>
<path d="M921.564 64.5941C921.564 66.2509 928.594 71.0757 933.564 71.0757C938.535 71.0757 945.064 67.7509 945.064 66.0941C945.064 64.4372 943.564 60.5941 933.564 61.0941C922.564 61.6441 921.564 62.9372 921.564 64.5941Z" fill="#F1F1F1"/>
</g>
<path d="M863.678 91.5612L860.783 94.2499C863.058 101.075 881.937 100.455 902.768 100.455C918.486 100.455 930.138 96.9386 935.446 93.8362L934.205 91.5612H863.678Z" fill="#F1F1F1"/>
<path d="M935.699 93.2158C936.94 93.9741 939.422 95.5736 939.422 95.9045C939.422 96.3182 948.936 101.696 951.004 106.246C953.072 110.796 962.38 128.376 962.793 128.583C963.207 128.79 963.414 130.03 964.241 130.444C965.068 130.858 967.136 131.271 967.136 132.926C967.136 134.581 965.068 139.544 963.62 140.992C962.173 142.44 959.07 144.715 956.382 143.267C953.693 141.819 955.141 140.165 954.727 139.338C954.463 138.809 953.946 138.197 953.391 137.339C953.09 137.822 953.072 138.924 953.072 139.958C953.072 140.992 954.313 144.715 954.106 146.37C953.9 148.024 952.452 149.679 946.868 153.402C941.283 157.124 919.153 158.986 917.499 159.193C915.844 159.399 889.991 160.02 870.963 158.159C851.935 156.297 847.799 151.333 845.524 149.265C843.249 147.197 843.662 142.854 844.49 141.819C845.151 140.992 845.017 138.579 844.867 137.476C844.686 137.874 844.556 138.097 844.49 138.097C843.869 138.097 843.249 139.338 843.042 140.578C842.835 141.819 840.146 144.922 836.63 143.267C833.114 141.613 831.46 135.615 831.046 133.546C830.633 131.478 833.114 130.858 833.735 130.651C834.355 130.444 834.976 129.617 835.183 128.583C835.39 127.549 839.733 120.723 843.249 112.657C846.765 104.591 856.899 96.7318 857.52 96.3182C858.016 95.9872 860.484 94.112 861.656 93.2158C862.277 96.1113 877.788 98.1796 901.366 98.8C920.229 99.2964 932.114 95.284 935.699 93.2158Z" fill="#980808"/>
<path d="M837.269 143.06C836.607 143.06 833.822 139.613 832.512 137.89C832.168 138.234 831.395 139.337 831.065 140.992C830.651 143.06 832.305 145.749 833.753 145.956C834.911 146.121 836.58 144.094 837.269 143.06Z" fill="#F1F1F1"/>
<path d="M960.886 143.06C961.548 143.06 964.333 139.613 965.643 137.89C965.988 138.234 966.76 139.337 967.091 140.992C967.504 143.06 965.85 145.749 964.402 145.956C963.244 146.121 961.575 144.094 960.886 143.06Z" fill="#F1F1F1"/>
<path d="M914.877 124.222C914.992 124.103 915.132 124.007 915.288 123.937C915.443 123.868 915.612 123.828 915.785 123.819C915.957 123.81 916.13 123.832 916.294 123.885C916.457 123.937 916.607 124.018 916.736 124.124L920.938 127.574L919.185 129.382L914.984 125.933C914.854 125.827 914.749 125.699 914.674 125.556C914.599 125.412 914.555 125.257 914.545 125.098C914.536 124.939 914.56 124.78 914.617 124.63C914.674 124.479 914.762 124.341 914.877 124.222Z" fill="white"/>
<path d="M938.117 129.382L936.365 127.573L940.567 124.124C940.827 123.91 941.169 123.8 941.518 123.819C941.867 123.837 942.193 123.982 942.426 124.222C942.658 124.462 942.777 124.777 942.757 125.098C942.738 125.418 942.58 125.719 942.319 125.933L938.117 129.382Z" fill="white"/>
<path d="M939.866 131.626C940.803 135.446 942.086 137.904 941.447 139.315C941.111 140.057 940.422 140.679 939.281 140.679C937.502 140.679 937.502 138.748 935.723 138.748C933.944 138.748 933.944 140.679 932.165 140.679C930.387 140.679 930.387 138.748 928.608 138.748C926.83 138.748 926.83 140.679 925.051 140.679C923.272 140.679 923.273 138.748 921.494 138.748C919.715 138.748 919.716 140.679 917.937 140.679C916.881 140.679 916.284 140.107 915.906 139.445C914.996 137.856 917.116 134.36 917.937 131.276C918.844 127.869 918.768 123.625 918.889 121.066C919.124 116.13 923.241 112.12 928.61 112.12C933.978 112.12 937.939 116.138 938.33 121.066C938.54 123.722 939.008 128.129 939.866 131.626Z" fill="white"/>
<path d="M924.953 121.643C925.548 121.643 926.031 121.199 926.031 120.651C926.031 120.104 925.548 119.66 924.953 119.66C924.358 119.66 923.876 120.104 923.876 120.651C923.876 121.199 924.358 121.643 924.953 121.643Z" fill="#292A2E"/>
<path d="M932.34 121.643C932.935 121.643 933.417 121.199 933.417 120.651C933.417 120.104 932.935 119.66 932.34 119.66C931.744 119.66 931.262 120.104 931.262 120.651C931.262 121.199 931.744 121.643 932.34 121.643Z" fill="#292A2E"/>
<path d="M930.583 123.328C930.645 123.328 930.706 123.34 930.763 123.365C930.819 123.389 930.868 123.425 930.908 123.469C930.947 123.514 930.975 123.566 930.99 123.621C931.005 123.677 931.006 123.735 930.994 123.791C930.763 124.785 929.803 125.41 928.653 125.41C927.504 125.41 926.544 124.785 926.313 123.791C926.301 123.735 926.302 123.677 926.317 123.621C926.331 123.565 926.36 123.514 926.399 123.469C926.438 123.425 926.488 123.389 926.544 123.365C926.6 123.34 926.662 123.328 926.724 123.328H930.583Z" fill="white"/>
<path d="M928.653 125.531C927.414 125.531 926.422 124.842 926.184 123.816C926.167 123.743 926.168 123.667 926.187 123.595C926.206 123.522 926.243 123.454 926.294 123.397C926.345 123.337 926.411 123.29 926.485 123.257C926.56 123.225 926.641 123.208 926.723 123.208H930.582C930.665 123.208 930.746 123.225 930.82 123.257C930.895 123.29 930.96 123.337 931.012 123.397C931.063 123.454 931.099 123.522 931.118 123.595C931.137 123.667 931.138 123.743 931.121 123.816C930.883 124.842 929.89 125.531 928.653 125.531ZM926.723 123.449C926.68 123.449 926.637 123.458 926.598 123.475C926.559 123.492 926.525 123.517 926.497 123.548C926.471 123.578 926.452 123.613 926.442 123.651C926.432 123.688 926.432 123.728 926.44 123.766C926.652 124.677 927.541 125.289 928.652 125.289C929.764 125.289 930.653 124.677 930.864 123.766C930.873 123.728 930.873 123.688 930.863 123.651C930.853 123.613 930.834 123.578 930.807 123.548C930.78 123.517 930.746 123.492 930.707 123.475C930.668 123.458 930.625 123.449 930.582 123.449H926.723Z" fill="#292A2E"/>
<defs>
<clipPath id="clip0_1_230">
<rect width="101.254" height="77.559" fill="white" transform="translate(50.1179 20)"/>
</clipPath>
<clipPath id="clip1_1_230">
<rect width="101.254" height="77.559" fill="white" transform="translate(250.118 20)"/>
</clipPath>
<clipPath id="clip2_1_230">
<rect width="101.254" height="77.559" fill="white" transform="translate(448.785 20)"/>
</clipPath>
<clipPath id="clip3_1_230">
<rect width="101.254" height="77.559" fill="white" transform="translate(650.118 20)"/>
</clipPath>
<clipPath id="clip4_1_230">
<rect width="101.254" height="77.559" fill="white" transform="translate(848.785 20)"/>
</clipPath>
</defs>
</svg>
