<svg width="209" height="192" viewBox="0 0 209 192" fill="none" xmlns="http://www.w3.org/2000/svg">
<path d="M38.8594 182.305C38.8594 170.296 61.9444 168.625 76.0518 169.48C78.6169 169.606 77.3342 174.61 76.0518 174.61C74.7694 174.61 43.9894 174.61 43.9894 182.305C43.9894 190 79.8992 189.634 79.8993 191.282C79.8993 191.75 38.8594 193.303 38.8594 182.305Z" fill="#8E4747"/>
<path d="M184.716 22.9196C160.092 13.6856 146.241 27.622 142.393 35.7445L144.958 89.6094C194.976 103.717 203.953 75.5019 206.518 70.3719C209.083 65.2419 215.496 34.462 184.716 22.9196Z" fill="#E3C795"/>
<path d="M42.3582 9.61192C68.6382 8.62981 75.9014 31.4699 76.9859 40.3919L63.1924 85.7082C11.2798 83.2921 10.2958 51.9343 10.2958 48.0868C10.2958 42.3513 9.50819 10.8396 42.3582 9.61192Z" fill="#E3C795"/>
<g filter="url(#filter0_i_1_6706)">
<path d="M180.884 32.4669C159.982 25.3917 148.224 36.07 144.958 42.2936L147.135 83.5657C189.594 94.375 197.215 72.7563 199.392 68.8256C201.569 64.895 207.013 41.3109 180.884 32.4669Z" fill="#E8B6B6"/>
</g>
<g filter="url(#filter1_i_1_6706)">
<path d="M47.1575 20.1429C69.2247 20.0334 69.4404 43.7153 70.5731 50.652L63.0354 79.2866C19.3366 76.1293 18.1116 53.2864 18.1116 48.793C18.1116 44.2395 19.5733 20.2798 47.1575 20.1429Z" fill="#E8B6B6"/>
</g>
<path d="M89.069 181.05H68.5491C68.5491 175.92 73.6791 175.92 72.3966 174.637C71.1141 173.355 60.8541 169.507 59.5716 156.682C58.5456 146.422 69.404 143.002 74.9615 142.575H78.809V166.942C85.991 166.942 88.6415 176.347 89.069 181.05Z" fill="#E3C795"/>
<rect x="71.6469" y="176.577" width="3.64307" height="3.64307" rx="1.21436" fill="#FDE8D7"/>
<rect x="76.5046" y="176.577" width="3.64307" height="3.64307" rx="1.21436" fill="#FDE8D7"/>
<rect x="82.5764" y="176.577" width="3.64307" height="3.64307" rx="1.21436" fill="#FDE8D7"/>
<path d="M123.865 181.05H144.385C144.385 175.92 139.255 175.92 140.537 174.637C141.82 173.355 152.08 169.507 153.362 156.682C154.388 146.422 143.53 143.002 137.972 142.575H134.125V166.942C126.943 166.942 124.292 176.347 123.865 181.05Z" fill="#E3C795"/>
<rect width="3.64307" height="3.64307" rx="1.21436" transform="matrix(-1 0 0 1 141.286 176.577)" fill="#FDE8D7"/>
<rect width="3.64307" height="3.64307" rx="1.21436" transform="matrix(-1 0 0 1 136.429 176.577)" fill="#FDE8D7"/>
<rect width="3.64307" height="3.64307" rx="1.21436" transform="matrix(-1 0 0 1 130.358 176.577)" fill="#FDE8D7"/>
<path fill-rule="evenodd" clip-rule="evenodd" d="M82.0697 101.88C78.9095 121.545 73.9436 162.671 79.361 169.853C84.7784 177.035 90.6473 180.54 92.9045 181.395L106.448 181.395H119.991C122.248 180.54 128.117 177.035 133.535 169.853C138.952 162.671 133.986 121.545 130.826 101.88H106.448V101.88H82.0697Z" fill="#E3C795"/>
<path fill-rule="evenodd" clip-rule="evenodd" d="M82.0697 101.88C78.9095 121.545 73.9436 162.671 79.361 169.853C84.7784 177.035 90.6473 180.54 92.9045 181.395L106.448 181.395H119.991C122.248 180.54 128.117 177.035 133.535 169.853C138.952 162.671 133.986 121.545 130.826 101.88H106.448V101.88H82.0697Z" fill="url(#paint0_linear_1_6706)" fill-opacity="0.2"/>
<g filter="url(#filter2_i_1_6706)">
<path fill-rule="evenodd" clip-rule="evenodd" d="M84.0816 104.445C81.2627 122.842 76.833 161.314 81.6654 168.032C86.4977 174.751 91.7328 178.03 93.7463 178.83L107.73 178.83H119.811C121.824 178.03 127.059 174.751 131.892 168.032C136.724 161.314 132.294 122.842 129.475 104.445H107.73V104.445H84.0816Z" fill="#FDE8D7"/>
</g>
<g filter="url(#filter3_i_1_6706)">
<path d="M74.8105 130.25C72.2693 120.085 76.9282 105.896 79.5754 100.072L87.5166 101.661C83.8107 108.543 79.5754 126.279 85.9284 128.661C98.6346 133.426 106.576 120.72 104.988 125.485C101.772 135.133 77.9871 142.956 74.8105 130.25Z" fill="#E3C795"/>
</g>
<path d="M85.6122 105.537C85.1265 105.537 80.1476 105.132 77.7189 104.929L78.3261 103.108L86.2194 104.322C86.2194 104.727 86.098 105.537 85.6122 105.537Z" fill="#D8B881"/>
<g filter="url(#filter4_i_1_6706)">
<path d="M134.813 130.25C137.355 120.085 132.696 105.896 130.048 100.072L122.107 101.661C125.813 108.543 130.048 126.279 123.695 128.661C110.989 133.426 103.048 120.72 104.636 125.485C107.852 135.133 131.637 142.956 134.813 130.25Z" fill="#E3C795"/>
</g>
<path d="M123.865 105.537C123.865 105.537 129.329 105.132 131.758 104.929L130.544 103.108L123.258 103.715C123.258 104.12 123.865 105.537 123.865 105.537Z" fill="#D8B881"/>
<path d="M65.7533 44.4813C67.0936 34.429 74.8373 26.4286 84.8405 24.7614L102.688 21.7868C105.201 21.368 107.766 21.368 110.279 21.7868L127.54 24.6638C137.821 26.3772 145.678 34.7668 146.715 45.1375L150.115 79.1346C151.474 92.7243 140.802 104.517 127.145 104.517H84.1157C70.1542 104.517 59.3881 92.2197 61.2333 78.3806L65.7533 44.4813Z" fill="#FDE8D7"/>
<path fill-rule="evenodd" clip-rule="evenodd" d="M84.2977 24.7393C74.2843 26.3747 66.5124 34.3565 65.1445 44.41L60.6397 77.5184C60.017 82.0952 60.7749 86.5062 62.5732 90.3618C62.6513 89.286 62.8674 88.1959 63.2357 87.1111C64.5548 83.2253 67.6416 80.1973 71.5521 78.953L98.6083 70.3442C103.038 68.9349 107.789 68.8955 112.241 70.2311L140.332 78.6583C144.813 80.0027 148.216 83.639 149.278 88.1669C150.339 85.0997 150.768 81.7512 150.414 78.2872L147.026 45.081C145.967 34.7019 138.078 26.3232 127.781 24.6415L110.06 21.7472C107.595 21.3447 105.082 21.3447 102.618 21.7472L84.2977 24.7393Z" fill="#E3C795"/>
<path d="M114.393 68.499C114.393 70.511 110.804 73.3564 106.378 73.3564C101.951 73.3564 98.3631 70.511 98.3631 68.499C98.3631 66.487 101.951 64.856 106.378 64.856C110.804 64.856 114.393 66.487 114.393 68.499Z" fill="#4E4949"/>
<path d="M114.15 80.6431C114.15 85.3378 110.344 89.1436 105.649 89.1436C100.955 89.1436 97.149 85.3378 97.149 80.6431" stroke="#4E4949" stroke-width="1.7001" stroke-linecap="round"/>
<ellipse cx="82.5763" cy="71.5353" rx="4.85742" ry="3.03589" transform="rotate(-16.1742 82.5763 71.5353)" fill="#E39D9D"/>
<ellipse cx="4.85742" cy="3.03589" rx="4.85742" ry="3.03589" transform="matrix(-0.960419 -0.278559 -0.278559 0.960419 136.1 69.9912)" fill="#E39D9D"/>
<circle cx="82.8421" cy="54.9116" r="8.76711" transform="rotate(-19.549 82.8421 54.9116)" fill="white"/>
<path fill-rule="evenodd" clip-rule="evenodd" d="M85.8082 61.3009C89.1162 60.1263 90.8457 56.4924 89.6711 53.1843C88.4965 49.8763 84.8626 48.1468 81.5545 49.3214C80.6097 49.6569 79.7937 50.1929 79.1373 50.8647C79.9563 50.9455 80.6954 51.4864 80.989 52.3132C81.394 53.4539 80.7976 54.7069 79.6569 55.112C78.8301 55.4056 77.9441 55.173 77.365 54.5883C77.2575 55.5215 77.3561 56.4931 77.6916 57.438C78.8662 60.7461 82.5001 62.4755 85.8082 61.3009Z" fill="#393939"/>
<circle cx="127.536" cy="54.9116" r="8.76711" transform="rotate(-19.549 127.536 54.9116)" fill="white"/>
<path fill-rule="evenodd" clip-rule="evenodd" d="M128.272 61.3009C131.58 60.1263 133.309 56.4924 132.135 53.1843C130.96 49.8763 127.326 48.1468 124.018 49.3214C123.073 49.6569 122.257 50.1929 121.601 50.8647C122.42 50.9456 123.159 51.4864 123.453 52.3132C123.858 53.4539 123.261 54.7069 122.121 55.112C121.294 55.4056 120.408 55.173 119.829 54.5884C119.721 55.5216 119.82 56.4931 120.155 57.438C121.33 60.7461 124.964 62.4755 128.272 61.3009Z" fill="#393939"/>
<path d="M72.7622 45.2814C74.5445 42.901 79.5373 39.2095 85.2503 43.487" stroke="#AE8D52" stroke-width="1.11514" stroke-linecap="round"/>
<path d="M139.892 45.2814C138.11 42.901 133.117 39.2095 127.404 43.487" stroke="#AE8D52" stroke-width="1.11514" stroke-linecap="round"/>
<defs>
<filter id="filter0_i_1_6706" x="144.958" y="30.1318" width="56.4298" height="56.4297" filterUnits="userSpaceOnUse" color-interpolation-filters="sRGB">
<feFlood flood-opacity="0" result="BackgroundImageFix"/>
<feBlend mode="normal" in="SourceGraphic" in2="BackgroundImageFix" result="shape"/>
<feColorMatrix in="SourceAlpha" type="matrix" values="0 0 0 0 0 0 0 0 0 0 0 0 0 0 0 0 0 0 127 0" result="hardAlpha"/>
<feOffset dy="5.12998"/>
<feComposite in2="hardAlpha" operator="arithmetic" k2="-1" k3="1"/>
<feColorMatrix type="matrix" values="0 0 0 0 0.890196 0 0 0 0 0.596078 0 0 0 0 0.596078 0 0 0 1 0"/>
<feBlend mode="normal" in2="shape" result="effect1_innerShadow_1_6706"/>
</filter>
<filter id="filter1_i_1_6706" x="18.1116" y="20.1426" width="52.4615" height="59.144" filterUnits="userSpaceOnUse" color-interpolation-filters="sRGB">
<feFlood flood-opacity="0" result="BackgroundImageFix"/>
<feBlend mode="normal" in="SourceGraphic" in2="BackgroundImageFix" result="shape"/>
<feColorMatrix in="SourceAlpha" type="matrix" values="0 0 0 0 0 0 0 0 0 0 0 0 0 0 0 0 0 0 127 0" result="hardAlpha"/>
<feOffset dx="-2.56499" dy="5.12998"/>
<feComposite in2="hardAlpha" operator="arithmetic" k2="-1" k3="1"/>
<feColorMatrix type="matrix" values="0 0 0 0 0.891667 0 0 0 0 0.594444 0 0 0 0 0.594444 0 0 0 1 0"/>
<feBlend mode="normal" in2="shape" result="effect1_innerShadow_1_6706"/>
</filter>
<filter id="filter2_i_1_6706" x="79.5153" y="104.445" width="54.5263" height="74.3848" filterUnits="userSpaceOnUse" color-interpolation-filters="sRGB">
<feFlood flood-opacity="0" result="BackgroundImageFix"/>
<feBlend mode="normal" in="SourceGraphic" in2="BackgroundImageFix" result="shape"/>
<feColorMatrix in="SourceAlpha" type="matrix" values="0 0 0 0 0 0 0 0 0 0 0 0 0 0 0 0 0 0 127 0" result="hardAlpha"/>
<feOffset dy="1.21436"/>
<feComposite in2="hardAlpha" operator="arithmetic" k2="-1" k3="1"/>
<feColorMatrix type="matrix" values="0 0 0 0 0.970833 0 0 0 0 0.838941 0 0 0 0 0.73217 0 0 0 1 0"/>
<feBlend mode="normal" in2="shape" result="effect1_innerShadow_1_6706"/>
</filter>
<filter id="filter3_i_1_6706" x="74.076" y="100.072" width="31.1131" height="36.7979" filterUnits="userSpaceOnUse" color-interpolation-filters="sRGB">
<feFlood flood-opacity="0" result="BackgroundImageFix"/>
<feBlend mode="normal" in="SourceGraphic" in2="BackgroundImageFix" result="shape"/>
<feColorMatrix in="SourceAlpha" type="matrix" values="0 0 0 0 0 0 0 0 0 0 0 0 0 0 0 0 0 0 127 0" result="hardAlpha"/>
<feOffset dy="1.21436"/>
<feComposite in2="hardAlpha" operator="arithmetic" k2="-1" k3="1"/>
<feColorMatrix type="matrix" values="0 0 0 0 0.845833 0 0 0 0 0.723115 0 0 0 0 0.503976 0 0 0 1 0"/>
<feBlend mode="normal" in2="shape" result="effect1_innerShadow_1_6706"/>
</filter>
<filter id="filter4_i_1_6706" x="104.435" y="100.072" width="31.1131" height="36.7979" filterUnits="userSpaceOnUse" color-interpolation-filters="sRGB">
<feFlood flood-opacity="0" result="BackgroundImageFix"/>
<feBlend mode="normal" in="SourceGraphic" in2="BackgroundImageFix" result="shape"/>
<feColorMatrix in="SourceAlpha" type="matrix" values="0 0 0 0 0 0 0 0 0 0 0 0 0 0 0 0 0 0 127 0" result="hardAlpha"/>
<feOffset dy="1.21436"/>
<feComposite in2="hardAlpha" operator="arithmetic" k2="-1" k3="1"/>
<feColorMatrix type="matrix" values="0 0 0 0 0.845833 0 0 0 0 0.723115 0 0 0 0 0.503976 0 0 0 1 0"/>
<feBlend mode="normal" in2="shape" result="effect1_innerShadow_1_6706"/>
</filter>
<linearGradient id="paint0_linear_1_6706" x1="106.448" y1="101.88" x2="106.864" y2="181.434" gradientUnits="userSpaceOnUse">
<stop stop-color="#E3C795"/>
<stop offset="1" stop-color="#C2A674"/>
</linearGradient>
</defs>
</svg>
